M48
;GenerationSoftware,Autodesk,EAGLE,9.6.2*%
;CreationDate,2021-02-14T23:51:39Z*%
FMAT,2
ICI,OFF
METRIC,TZ,000.000
T4C0.350
T3C0.900
T2C1.000
T1C1.016
%
G90
M71
T1
X28079Y49601
X34581Y45079
X34581Y49601
X28079Y45079
T2
X36290Y19940
X36290Y17400
X36290Y14860
X66770Y27560
X36290Y12320
X36290Y22480
X36290Y25020
X37280Y35210
X34740Y35210
X66770Y22480
X66770Y25020
X66770Y30100
X66770Y32640
X66770Y35180
X46190Y92000
X48730Y92000
X51270Y92000
X53810Y92000
T3
X43910Y7240
X59150Y7240
X59150Y9780
X59150Y12320
X59150Y14860
X59150Y17400
X43910Y27560
X59150Y22480
X59150Y25020
X59150Y27560
X59150Y30100
X59150Y32640
X59150Y35180
X59150Y37720
X59150Y40260
X59150Y42800
X43910Y42800
X43910Y40260
X43910Y37720
X43910Y35180
X43910Y32640
X43910Y30100
X59150Y19940
X43910Y25020
X43910Y22480
X43910Y19940
X43910Y17400
X43910Y14860
X43910Y12320
X43910Y9780
T4
X75000Y2000
X75000Y95000
X24000Y95000
X24000Y2000
M30