G04 EAGLE Gerber RS-274X export*
G75*
%MOMM*%
%FSLAX34Y34*%
%LPD*%
%INSilkscreen Top*%
%IPPOS*%
%AMOC8*
5,1,8,0,0,1.08239X$1,22.5*%
G01*
%ADD10C,0.152400*%
%ADD11C,0.050800*%
%ADD12C,0.127000*%
%ADD13C,0.200000*%
%ADD14C,0.254000*%
%ADD15C,0.101600*%


D10*
X660762Y160762D02*
X660762Y177018D01*
X660762Y169793D02*
X669793Y169793D01*
X669793Y177018D02*
X669793Y160762D01*
X680487Y160762D02*
X684100Y160762D01*
X680487Y160762D02*
X680369Y160764D01*
X680251Y160770D01*
X680133Y160779D01*
X680016Y160793D01*
X679899Y160810D01*
X679782Y160831D01*
X679667Y160856D01*
X679552Y160885D01*
X679438Y160918D01*
X679326Y160954D01*
X679215Y160994D01*
X679105Y161037D01*
X678996Y161084D01*
X678889Y161134D01*
X678784Y161189D01*
X678681Y161246D01*
X678580Y161307D01*
X678480Y161371D01*
X678383Y161438D01*
X678288Y161508D01*
X678196Y161582D01*
X678105Y161658D01*
X678018Y161738D01*
X677933Y161820D01*
X677851Y161905D01*
X677771Y161992D01*
X677695Y162083D01*
X677621Y162175D01*
X677551Y162270D01*
X677484Y162367D01*
X677420Y162467D01*
X677359Y162568D01*
X677302Y162671D01*
X677247Y162776D01*
X677197Y162883D01*
X677150Y162992D01*
X677107Y163102D01*
X677067Y163213D01*
X677031Y163325D01*
X676998Y163439D01*
X676969Y163554D01*
X676944Y163669D01*
X676923Y163786D01*
X676906Y163903D01*
X676892Y164020D01*
X676883Y164138D01*
X676877Y164256D01*
X676875Y164374D01*
X676875Y173406D01*
X676877Y173524D01*
X676883Y173642D01*
X676892Y173760D01*
X676906Y173877D01*
X676923Y173994D01*
X676944Y174111D01*
X676969Y174226D01*
X676998Y174341D01*
X677031Y174455D01*
X677067Y174567D01*
X677107Y174678D01*
X677150Y174788D01*
X677197Y174897D01*
X677247Y175004D01*
X677301Y175109D01*
X677359Y175212D01*
X677420Y175313D01*
X677484Y175413D01*
X677551Y175510D01*
X677621Y175605D01*
X677695Y175697D01*
X677771Y175788D01*
X677851Y175875D01*
X677933Y175960D01*
X678018Y176042D01*
X678105Y176122D01*
X678196Y176198D01*
X678288Y176272D01*
X678383Y176342D01*
X678480Y176409D01*
X678580Y176473D01*
X678681Y176534D01*
X678784Y176591D01*
X678889Y176645D01*
X678996Y176696D01*
X679105Y176743D01*
X679215Y176786D01*
X679326Y176826D01*
X679438Y176862D01*
X679552Y176895D01*
X679667Y176924D01*
X679782Y176949D01*
X679899Y176970D01*
X680016Y176987D01*
X680133Y177001D01*
X680251Y177010D01*
X680369Y177016D01*
X680487Y177018D01*
X684100Y177018D01*
X691295Y174760D02*
X691158Y174471D01*
X691028Y174179D01*
X690905Y173883D01*
X690790Y173585D01*
X690681Y173284D01*
X690580Y172981D01*
X690486Y172675D01*
X690399Y172368D01*
X690320Y172058D01*
X690248Y171746D01*
X690184Y171433D01*
X690127Y171118D01*
X690077Y170802D01*
X690035Y170485D01*
X690001Y170167D01*
X689974Y169849D01*
X689955Y169529D01*
X689944Y169210D01*
X689940Y168890D01*
X691295Y174761D02*
X691334Y174869D01*
X691377Y174976D01*
X691423Y175081D01*
X691474Y175185D01*
X691527Y175287D01*
X691584Y175387D01*
X691645Y175485D01*
X691709Y175580D01*
X691776Y175674D01*
X691847Y175765D01*
X691920Y175854D01*
X691997Y175940D01*
X692076Y176023D01*
X692158Y176104D01*
X692243Y176182D01*
X692331Y176256D01*
X692421Y176328D01*
X692513Y176396D01*
X692608Y176462D01*
X692705Y176524D01*
X692804Y176582D01*
X692906Y176638D01*
X693008Y176689D01*
X693113Y176737D01*
X693219Y176782D01*
X693327Y176823D01*
X693436Y176860D01*
X693546Y176893D01*
X693658Y176922D01*
X693770Y176948D01*
X693883Y176970D01*
X693997Y176987D01*
X694111Y177001D01*
X694226Y177011D01*
X694341Y177017D01*
X694456Y177019D01*
X694456Y177018D02*
X694571Y177016D01*
X694686Y177010D01*
X694801Y177000D01*
X694915Y176986D01*
X695029Y176969D01*
X695142Y176947D01*
X695254Y176921D01*
X695366Y176892D01*
X695476Y176859D01*
X695585Y176822D01*
X695693Y176781D01*
X695799Y176736D01*
X695904Y176688D01*
X696006Y176637D01*
X696107Y176581D01*
X696207Y176523D01*
X696304Y176461D01*
X696398Y176396D01*
X696491Y176327D01*
X696581Y176255D01*
X696669Y176181D01*
X696754Y176103D01*
X696836Y176022D01*
X696915Y175939D01*
X696992Y175853D01*
X697065Y175764D01*
X697136Y175673D01*
X697203Y175579D01*
X697267Y175484D01*
X697328Y175386D01*
X697385Y175286D01*
X697438Y175184D01*
X697489Y175080D01*
X697535Y174975D01*
X697578Y174868D01*
X697617Y174760D01*
X697616Y174760D02*
X697753Y174471D01*
X697883Y174179D01*
X698006Y173883D01*
X698121Y173585D01*
X698230Y173284D01*
X698331Y172981D01*
X698425Y172675D01*
X698512Y172368D01*
X698591Y172058D01*
X698663Y171746D01*
X698727Y171433D01*
X698784Y171118D01*
X698834Y170802D01*
X698876Y170485D01*
X698910Y170167D01*
X698937Y169849D01*
X698956Y169529D01*
X698967Y169210D01*
X698971Y168890D01*
X689941Y168890D02*
X689945Y168570D01*
X689956Y168251D01*
X689975Y167931D01*
X690002Y167613D01*
X690036Y167295D01*
X690078Y166978D01*
X690128Y166662D01*
X690185Y166347D01*
X690249Y166034D01*
X690321Y165722D01*
X690400Y165412D01*
X690487Y165105D01*
X690581Y164799D01*
X690682Y164496D01*
X690791Y164195D01*
X690906Y163897D01*
X691029Y163601D01*
X691159Y163309D01*
X691296Y163020D01*
X691295Y163020D02*
X691334Y162912D01*
X691377Y162805D01*
X691423Y162700D01*
X691474Y162596D01*
X691527Y162494D01*
X691584Y162394D01*
X691645Y162296D01*
X691709Y162201D01*
X691776Y162107D01*
X691847Y162016D01*
X691920Y161927D01*
X691997Y161841D01*
X692076Y161758D01*
X692158Y161677D01*
X692243Y161599D01*
X692331Y161525D01*
X692421Y161453D01*
X692514Y161384D01*
X692608Y161319D01*
X692705Y161257D01*
X692805Y161199D01*
X692906Y161143D01*
X693008Y161092D01*
X693113Y161044D01*
X693219Y160999D01*
X693327Y160958D01*
X693436Y160921D01*
X693546Y160888D01*
X693658Y160859D01*
X693770Y160833D01*
X693883Y160811D01*
X693997Y160794D01*
X694111Y160780D01*
X694226Y160770D01*
X694341Y160764D01*
X694456Y160762D01*
X697616Y163020D02*
X697753Y163309D01*
X697883Y163601D01*
X698006Y163897D01*
X698121Y164195D01*
X698230Y164496D01*
X698331Y164799D01*
X698425Y165105D01*
X698512Y165412D01*
X698591Y165722D01*
X698663Y166034D01*
X698727Y166347D01*
X698784Y166662D01*
X698834Y166978D01*
X698876Y167295D01*
X698910Y167613D01*
X698937Y167931D01*
X698956Y168251D01*
X698967Y168570D01*
X698971Y168890D01*
X697617Y163020D02*
X697578Y162912D01*
X697535Y162805D01*
X697489Y162700D01*
X697438Y162596D01*
X697385Y162494D01*
X697328Y162394D01*
X697267Y162296D01*
X697203Y162201D01*
X697136Y162107D01*
X697065Y162016D01*
X696992Y161927D01*
X696915Y161841D01*
X696836Y161758D01*
X696754Y161677D01*
X696669Y161599D01*
X696581Y161525D01*
X696491Y161453D01*
X696398Y161384D01*
X696304Y161319D01*
X696207Y161257D01*
X696107Y161199D01*
X696006Y161143D01*
X695903Y161092D01*
X695799Y161044D01*
X695693Y160999D01*
X695585Y160958D01*
X695476Y160921D01*
X695366Y160888D01*
X695254Y160859D01*
X695142Y160833D01*
X695029Y160811D01*
X694915Y160794D01*
X694801Y160780D01*
X694686Y160770D01*
X694571Y160764D01*
X694456Y160762D01*
X690843Y164374D02*
X698068Y173406D01*
X705572Y160762D02*
X710990Y160762D01*
X711108Y160764D01*
X711226Y160770D01*
X711344Y160779D01*
X711461Y160793D01*
X711578Y160810D01*
X711695Y160831D01*
X711810Y160856D01*
X711925Y160885D01*
X712039Y160918D01*
X712151Y160954D01*
X712262Y160994D01*
X712372Y161037D01*
X712481Y161084D01*
X712588Y161134D01*
X712693Y161189D01*
X712796Y161246D01*
X712897Y161307D01*
X712997Y161371D01*
X713094Y161438D01*
X713189Y161508D01*
X713281Y161582D01*
X713372Y161658D01*
X713459Y161738D01*
X713544Y161820D01*
X713626Y161905D01*
X713706Y161992D01*
X713782Y162083D01*
X713856Y162175D01*
X713926Y162270D01*
X713993Y162367D01*
X714057Y162467D01*
X714118Y162568D01*
X714175Y162671D01*
X714230Y162776D01*
X714280Y162883D01*
X714327Y162992D01*
X714370Y163102D01*
X714410Y163213D01*
X714446Y163325D01*
X714479Y163439D01*
X714508Y163554D01*
X714533Y163669D01*
X714554Y163786D01*
X714571Y163903D01*
X714585Y164020D01*
X714594Y164138D01*
X714600Y164256D01*
X714602Y164374D01*
X714603Y164374D02*
X714603Y166181D01*
X714602Y166181D02*
X714600Y166299D01*
X714594Y166417D01*
X714585Y166535D01*
X714571Y166652D01*
X714554Y166769D01*
X714533Y166886D01*
X714508Y167001D01*
X714479Y167116D01*
X714446Y167230D01*
X714410Y167342D01*
X714370Y167453D01*
X714327Y167563D01*
X714280Y167672D01*
X714230Y167779D01*
X714175Y167884D01*
X714118Y167987D01*
X714057Y168088D01*
X713993Y168188D01*
X713926Y168285D01*
X713856Y168380D01*
X713782Y168472D01*
X713706Y168563D01*
X713626Y168650D01*
X713544Y168735D01*
X713459Y168817D01*
X713372Y168897D01*
X713281Y168973D01*
X713189Y169047D01*
X713094Y169117D01*
X712997Y169184D01*
X712897Y169248D01*
X712796Y169309D01*
X712693Y169366D01*
X712588Y169421D01*
X712481Y169471D01*
X712372Y169518D01*
X712262Y169561D01*
X712151Y169601D01*
X712039Y169637D01*
X711925Y169670D01*
X711810Y169699D01*
X711695Y169724D01*
X711578Y169745D01*
X711461Y169762D01*
X711344Y169776D01*
X711226Y169785D01*
X711108Y169791D01*
X710990Y169793D01*
X705572Y169793D01*
X705572Y177018D01*
X714603Y177018D01*
X319238Y150762D02*
X302982Y150762D01*
X319238Y150762D02*
X319238Y157987D01*
X307046Y172789D02*
X306921Y172787D01*
X306796Y172781D01*
X306671Y172772D01*
X306547Y172758D01*
X306423Y172741D01*
X306299Y172720D01*
X306177Y172695D01*
X306055Y172666D01*
X305934Y172634D01*
X305814Y172598D01*
X305695Y172558D01*
X305578Y172515D01*
X305462Y172468D01*
X305347Y172417D01*
X305235Y172363D01*
X305123Y172305D01*
X305014Y172245D01*
X304907Y172180D01*
X304801Y172113D01*
X304698Y172042D01*
X304597Y171968D01*
X304498Y171891D01*
X304402Y171811D01*
X304308Y171728D01*
X304217Y171643D01*
X304128Y171554D01*
X304043Y171463D01*
X303960Y171369D01*
X303880Y171273D01*
X303803Y171174D01*
X303729Y171073D01*
X303658Y170970D01*
X303591Y170864D01*
X303526Y170757D01*
X303466Y170648D01*
X303408Y170536D01*
X303354Y170424D01*
X303303Y170309D01*
X303256Y170193D01*
X303213Y170076D01*
X303173Y169957D01*
X303137Y169837D01*
X303105Y169716D01*
X303076Y169594D01*
X303051Y169472D01*
X303030Y169348D01*
X303013Y169224D01*
X302999Y169100D01*
X302990Y168975D01*
X302984Y168850D01*
X302982Y168725D01*
X302984Y168582D01*
X302990Y168440D01*
X303000Y168297D01*
X303013Y168155D01*
X303031Y168014D01*
X303052Y167872D01*
X303077Y167732D01*
X303106Y167592D01*
X303139Y167453D01*
X303176Y167315D01*
X303216Y167178D01*
X303260Y167043D01*
X303308Y166908D01*
X303360Y166775D01*
X303415Y166643D01*
X303474Y166513D01*
X303536Y166385D01*
X303602Y166258D01*
X303671Y166133D01*
X303743Y166010D01*
X303819Y165889D01*
X303898Y165771D01*
X303981Y165654D01*
X304066Y165540D01*
X304155Y165428D01*
X304246Y165319D01*
X304341Y165212D01*
X304438Y165107D01*
X304539Y165006D01*
X304642Y164907D01*
X304747Y164811D01*
X304856Y164718D01*
X304967Y164628D01*
X305080Y164541D01*
X305195Y164457D01*
X305313Y164377D01*
X305433Y164299D01*
X305555Y164225D01*
X305679Y164155D01*
X305805Y164087D01*
X305933Y164024D01*
X306062Y163963D01*
X306193Y163906D01*
X306325Y163853D01*
X306459Y163804D01*
X306594Y163758D01*
X310207Y171434D02*
X310115Y171528D01*
X310021Y171618D01*
X309924Y171706D01*
X309824Y171791D01*
X309722Y171873D01*
X309617Y171951D01*
X309510Y172027D01*
X309401Y172099D01*
X309290Y172168D01*
X309176Y172234D01*
X309061Y172296D01*
X308944Y172355D01*
X308825Y172410D01*
X308705Y172461D01*
X308583Y172509D01*
X308460Y172554D01*
X308336Y172594D01*
X308210Y172631D01*
X308083Y172664D01*
X307956Y172693D01*
X307827Y172719D01*
X307698Y172740D01*
X307568Y172758D01*
X307438Y172771D01*
X307308Y172781D01*
X307177Y172787D01*
X307046Y172789D01*
X310207Y171435D02*
X319238Y163758D01*
X319238Y172789D01*
X312013Y183002D02*
X312013Y188421D01*
X312013Y183002D02*
X312011Y182884D01*
X312005Y182766D01*
X311996Y182648D01*
X311982Y182531D01*
X311965Y182414D01*
X311944Y182297D01*
X311919Y182182D01*
X311890Y182067D01*
X311857Y181953D01*
X311821Y181841D01*
X311781Y181730D01*
X311738Y181620D01*
X311691Y181511D01*
X311641Y181404D01*
X311586Y181299D01*
X311529Y181196D01*
X311468Y181095D01*
X311404Y180995D01*
X311337Y180898D01*
X311267Y180803D01*
X311193Y180711D01*
X311117Y180620D01*
X311037Y180533D01*
X310955Y180448D01*
X310870Y180366D01*
X310783Y180286D01*
X310692Y180210D01*
X310600Y180136D01*
X310505Y180066D01*
X310408Y179999D01*
X310308Y179935D01*
X310207Y179874D01*
X310104Y179817D01*
X309999Y179762D01*
X309892Y179712D01*
X309783Y179665D01*
X309673Y179622D01*
X309562Y179582D01*
X309450Y179546D01*
X309336Y179513D01*
X309221Y179484D01*
X309106Y179459D01*
X308989Y179438D01*
X308872Y179421D01*
X308755Y179407D01*
X308637Y179398D01*
X308519Y179392D01*
X308401Y179390D01*
X308401Y179389D02*
X307498Y179389D01*
X307365Y179391D01*
X307233Y179397D01*
X307101Y179407D01*
X306969Y179420D01*
X306837Y179438D01*
X306707Y179459D01*
X306576Y179484D01*
X306447Y179513D01*
X306319Y179546D01*
X306191Y179582D01*
X306065Y179622D01*
X305940Y179666D01*
X305816Y179714D01*
X305694Y179765D01*
X305573Y179820D01*
X305454Y179878D01*
X305336Y179940D01*
X305221Y180005D01*
X305107Y180074D01*
X304996Y180145D01*
X304887Y180221D01*
X304780Y180299D01*
X304675Y180380D01*
X304573Y180465D01*
X304473Y180552D01*
X304376Y180642D01*
X304281Y180735D01*
X304190Y180831D01*
X304101Y180929D01*
X304015Y181030D01*
X303932Y181134D01*
X303852Y181240D01*
X303776Y181348D01*
X303702Y181458D01*
X303632Y181571D01*
X303565Y181685D01*
X303502Y181802D01*
X303442Y181920D01*
X303385Y182040D01*
X303332Y182162D01*
X303283Y182285D01*
X303237Y182409D01*
X303195Y182535D01*
X303157Y182662D01*
X303122Y182790D01*
X303091Y182919D01*
X303064Y183048D01*
X303041Y183179D01*
X303021Y183310D01*
X303006Y183442D01*
X302994Y183574D01*
X302986Y183706D01*
X302982Y183839D01*
X302982Y183971D01*
X302986Y184104D01*
X302994Y184236D01*
X303006Y184368D01*
X303021Y184500D01*
X303041Y184631D01*
X303064Y184762D01*
X303091Y184891D01*
X303122Y185020D01*
X303157Y185148D01*
X303195Y185275D01*
X303237Y185401D01*
X303283Y185525D01*
X303332Y185648D01*
X303385Y185770D01*
X303442Y185890D01*
X303502Y186008D01*
X303565Y186125D01*
X303632Y186239D01*
X303702Y186352D01*
X303776Y186462D01*
X303852Y186570D01*
X303932Y186676D01*
X304015Y186780D01*
X304101Y186881D01*
X304190Y186979D01*
X304281Y187075D01*
X304376Y187168D01*
X304473Y187258D01*
X304573Y187345D01*
X304675Y187430D01*
X304780Y187511D01*
X304887Y187589D01*
X304996Y187665D01*
X305107Y187736D01*
X305221Y187805D01*
X305336Y187870D01*
X305454Y187932D01*
X305573Y187990D01*
X305694Y188045D01*
X305816Y188096D01*
X305940Y188144D01*
X306065Y188188D01*
X306191Y188228D01*
X306319Y188264D01*
X306447Y188297D01*
X306576Y188326D01*
X306707Y188351D01*
X306837Y188372D01*
X306969Y188390D01*
X307101Y188403D01*
X307233Y188413D01*
X307365Y188419D01*
X307498Y188421D01*
X312013Y188421D01*
X312188Y188419D01*
X312362Y188413D01*
X312536Y188402D01*
X312710Y188387D01*
X312884Y188368D01*
X313057Y188345D01*
X313229Y188318D01*
X313401Y188286D01*
X313572Y188251D01*
X313742Y188211D01*
X313911Y188167D01*
X314079Y188119D01*
X314246Y188067D01*
X314411Y188011D01*
X314575Y187951D01*
X314738Y187888D01*
X314898Y187820D01*
X315058Y187748D01*
X315215Y187673D01*
X315371Y187593D01*
X315524Y187510D01*
X315676Y187424D01*
X315825Y187333D01*
X315972Y187239D01*
X316117Y187142D01*
X316260Y187041D01*
X316400Y186937D01*
X316537Y186829D01*
X316672Y186718D01*
X316804Y186604D01*
X316933Y186487D01*
X317060Y186366D01*
X317183Y186243D01*
X317304Y186116D01*
X317421Y185987D01*
X317535Y185855D01*
X317646Y185720D01*
X317754Y185583D01*
X317858Y185443D01*
X317959Y185300D01*
X318056Y185155D01*
X318150Y185008D01*
X318241Y184859D01*
X318327Y184707D01*
X318410Y184554D01*
X318490Y184398D01*
X318565Y184241D01*
X318637Y184081D01*
X318705Y183921D01*
X318768Y183758D01*
X318828Y183594D01*
X318884Y183429D01*
X318936Y183262D01*
X318984Y183094D01*
X319028Y182925D01*
X319068Y182755D01*
X319103Y182584D01*
X319135Y182412D01*
X319162Y182240D01*
X319185Y182067D01*
X319204Y181893D01*
X319219Y181719D01*
X319230Y181545D01*
X319236Y181371D01*
X319238Y181196D01*
X314722Y195020D02*
X314589Y195022D01*
X314457Y195028D01*
X314325Y195038D01*
X314193Y195051D01*
X314061Y195069D01*
X313931Y195090D01*
X313800Y195115D01*
X313671Y195144D01*
X313543Y195177D01*
X313415Y195213D01*
X313289Y195253D01*
X313164Y195297D01*
X313040Y195345D01*
X312918Y195396D01*
X312797Y195451D01*
X312678Y195509D01*
X312560Y195571D01*
X312445Y195636D01*
X312331Y195705D01*
X312220Y195776D01*
X312111Y195852D01*
X312004Y195930D01*
X311899Y196011D01*
X311797Y196096D01*
X311697Y196183D01*
X311600Y196273D01*
X311505Y196366D01*
X311414Y196462D01*
X311325Y196560D01*
X311239Y196661D01*
X311156Y196765D01*
X311076Y196871D01*
X311000Y196979D01*
X310926Y197089D01*
X310856Y197202D01*
X310789Y197316D01*
X310726Y197433D01*
X310666Y197551D01*
X310609Y197671D01*
X310556Y197793D01*
X310507Y197916D01*
X310461Y198040D01*
X310419Y198166D01*
X310381Y198293D01*
X310346Y198421D01*
X310315Y198550D01*
X310288Y198679D01*
X310265Y198810D01*
X310245Y198941D01*
X310230Y199073D01*
X310218Y199205D01*
X310210Y199337D01*
X310206Y199470D01*
X310206Y199602D01*
X310210Y199735D01*
X310218Y199867D01*
X310230Y199999D01*
X310245Y200131D01*
X310265Y200262D01*
X310288Y200393D01*
X310315Y200522D01*
X310346Y200651D01*
X310381Y200779D01*
X310419Y200906D01*
X310461Y201032D01*
X310507Y201156D01*
X310556Y201279D01*
X310609Y201401D01*
X310666Y201521D01*
X310726Y201639D01*
X310789Y201756D01*
X310856Y201870D01*
X310926Y201983D01*
X311000Y202093D01*
X311076Y202201D01*
X311156Y202307D01*
X311239Y202411D01*
X311325Y202512D01*
X311414Y202610D01*
X311505Y202706D01*
X311600Y202799D01*
X311697Y202889D01*
X311797Y202976D01*
X311899Y203061D01*
X312004Y203142D01*
X312111Y203220D01*
X312220Y203296D01*
X312331Y203367D01*
X312445Y203436D01*
X312560Y203501D01*
X312678Y203563D01*
X312797Y203621D01*
X312918Y203676D01*
X313040Y203727D01*
X313164Y203775D01*
X313289Y203819D01*
X313415Y203859D01*
X313543Y203895D01*
X313671Y203928D01*
X313800Y203957D01*
X313931Y203982D01*
X314061Y204003D01*
X314193Y204021D01*
X314325Y204034D01*
X314457Y204044D01*
X314589Y204050D01*
X314722Y204052D01*
X314855Y204050D01*
X314987Y204044D01*
X315119Y204034D01*
X315251Y204021D01*
X315383Y204003D01*
X315513Y203982D01*
X315644Y203957D01*
X315773Y203928D01*
X315901Y203895D01*
X316029Y203859D01*
X316155Y203819D01*
X316280Y203775D01*
X316404Y203727D01*
X316526Y203676D01*
X316647Y203621D01*
X316766Y203563D01*
X316884Y203501D01*
X316999Y203436D01*
X317113Y203367D01*
X317224Y203296D01*
X317333Y203220D01*
X317440Y203142D01*
X317545Y203061D01*
X317647Y202976D01*
X317747Y202889D01*
X317844Y202799D01*
X317939Y202706D01*
X318030Y202610D01*
X318119Y202512D01*
X318205Y202411D01*
X318288Y202307D01*
X318368Y202201D01*
X318444Y202093D01*
X318518Y201983D01*
X318588Y201870D01*
X318655Y201756D01*
X318718Y201639D01*
X318778Y201521D01*
X318835Y201401D01*
X318888Y201279D01*
X318937Y201156D01*
X318983Y201032D01*
X319025Y200906D01*
X319063Y200779D01*
X319098Y200651D01*
X319129Y200522D01*
X319156Y200393D01*
X319179Y200262D01*
X319199Y200131D01*
X319214Y199999D01*
X319226Y199867D01*
X319234Y199735D01*
X319238Y199602D01*
X319238Y199470D01*
X319234Y199337D01*
X319226Y199205D01*
X319214Y199073D01*
X319199Y198941D01*
X319179Y198810D01*
X319156Y198679D01*
X319129Y198550D01*
X319098Y198421D01*
X319063Y198293D01*
X319025Y198166D01*
X318983Y198040D01*
X318937Y197916D01*
X318888Y197793D01*
X318835Y197671D01*
X318778Y197551D01*
X318718Y197433D01*
X318655Y197316D01*
X318588Y197202D01*
X318518Y197089D01*
X318444Y196979D01*
X318368Y196871D01*
X318288Y196765D01*
X318205Y196661D01*
X318119Y196560D01*
X318030Y196462D01*
X317939Y196366D01*
X317844Y196273D01*
X317747Y196183D01*
X317647Y196096D01*
X317545Y196011D01*
X317440Y195930D01*
X317333Y195852D01*
X317224Y195776D01*
X317113Y195705D01*
X316999Y195636D01*
X316884Y195571D01*
X316766Y195509D01*
X316647Y195451D01*
X316526Y195396D01*
X316404Y195345D01*
X316280Y195297D01*
X316155Y195253D01*
X316029Y195213D01*
X315901Y195177D01*
X315773Y195144D01*
X315644Y195115D01*
X315513Y195090D01*
X315383Y195069D01*
X315251Y195051D01*
X315119Y195038D01*
X314987Y195028D01*
X314855Y195022D01*
X314722Y195020D01*
X306594Y195924D02*
X306475Y195926D01*
X306355Y195932D01*
X306236Y195942D01*
X306118Y195956D01*
X305999Y195973D01*
X305882Y195995D01*
X305765Y196020D01*
X305650Y196050D01*
X305535Y196083D01*
X305421Y196120D01*
X305309Y196160D01*
X305198Y196205D01*
X305089Y196253D01*
X304981Y196304D01*
X304875Y196359D01*
X304771Y196418D01*
X304669Y196480D01*
X304569Y196545D01*
X304471Y196614D01*
X304375Y196686D01*
X304282Y196761D01*
X304192Y196838D01*
X304104Y196919D01*
X304019Y197003D01*
X303937Y197090D01*
X303857Y197179D01*
X303781Y197271D01*
X303707Y197365D01*
X303637Y197462D01*
X303570Y197560D01*
X303506Y197661D01*
X303446Y197765D01*
X303389Y197870D01*
X303336Y197977D01*
X303286Y198085D01*
X303240Y198195D01*
X303198Y198307D01*
X303159Y198420D01*
X303124Y198534D01*
X303093Y198649D01*
X303065Y198766D01*
X303042Y198883D01*
X303022Y199000D01*
X303006Y199119D01*
X302994Y199238D01*
X302986Y199357D01*
X302982Y199476D01*
X302982Y199596D01*
X302986Y199715D01*
X302994Y199834D01*
X303006Y199953D01*
X303022Y200072D01*
X303042Y200189D01*
X303065Y200306D01*
X303093Y200423D01*
X303124Y200538D01*
X303159Y200652D01*
X303198Y200765D01*
X303240Y200877D01*
X303286Y200987D01*
X303336Y201095D01*
X303389Y201202D01*
X303446Y201307D01*
X303506Y201411D01*
X303570Y201512D01*
X303637Y201610D01*
X303707Y201707D01*
X303781Y201801D01*
X303857Y201893D01*
X303937Y201982D01*
X304019Y202069D01*
X304104Y202153D01*
X304192Y202234D01*
X304282Y202311D01*
X304375Y202386D01*
X304471Y202458D01*
X304569Y202527D01*
X304669Y202592D01*
X304771Y202654D01*
X304875Y202713D01*
X304981Y202768D01*
X305089Y202819D01*
X305198Y202867D01*
X305309Y202912D01*
X305421Y202952D01*
X305535Y202989D01*
X305650Y203022D01*
X305765Y203052D01*
X305882Y203077D01*
X305999Y203099D01*
X306118Y203116D01*
X306236Y203130D01*
X306355Y203140D01*
X306475Y203146D01*
X306594Y203148D01*
X306713Y203146D01*
X306833Y203140D01*
X306952Y203130D01*
X307070Y203116D01*
X307189Y203099D01*
X307306Y203077D01*
X307423Y203052D01*
X307538Y203022D01*
X307653Y202989D01*
X307767Y202952D01*
X307879Y202912D01*
X307990Y202867D01*
X308099Y202819D01*
X308207Y202768D01*
X308313Y202713D01*
X308417Y202654D01*
X308519Y202592D01*
X308619Y202527D01*
X308717Y202458D01*
X308813Y202386D01*
X308906Y202311D01*
X308996Y202234D01*
X309084Y202153D01*
X309169Y202069D01*
X309251Y201982D01*
X309331Y201893D01*
X309407Y201801D01*
X309481Y201707D01*
X309551Y201610D01*
X309618Y201512D01*
X309682Y201411D01*
X309742Y201307D01*
X309799Y201202D01*
X309852Y201095D01*
X309902Y200987D01*
X309948Y200877D01*
X309990Y200765D01*
X310029Y200652D01*
X310064Y200538D01*
X310095Y200423D01*
X310123Y200306D01*
X310146Y200189D01*
X310166Y200072D01*
X310182Y199953D01*
X310194Y199834D01*
X310202Y199715D01*
X310206Y199596D01*
X310206Y199476D01*
X310202Y199357D01*
X310194Y199238D01*
X310182Y199119D01*
X310166Y199000D01*
X310146Y198883D01*
X310123Y198766D01*
X310095Y198649D01*
X310064Y198534D01*
X310029Y198420D01*
X309990Y198307D01*
X309948Y198195D01*
X309902Y198085D01*
X309852Y197977D01*
X309799Y197870D01*
X309742Y197765D01*
X309682Y197661D01*
X309618Y197560D01*
X309551Y197462D01*
X309481Y197365D01*
X309407Y197271D01*
X309331Y197179D01*
X309251Y197090D01*
X309169Y197003D01*
X309084Y196919D01*
X308996Y196838D01*
X308906Y196761D01*
X308813Y196686D01*
X308717Y196614D01*
X308619Y196545D01*
X308519Y196480D01*
X308417Y196418D01*
X308313Y196359D01*
X308207Y196304D01*
X308099Y196253D01*
X307990Y196205D01*
X307879Y196160D01*
X307767Y196120D01*
X307653Y196083D01*
X307538Y196050D01*
X307423Y196020D01*
X307306Y195995D01*
X307189Y195973D01*
X307070Y195956D01*
X306952Y195942D01*
X306833Y195932D01*
X306713Y195926D01*
X306594Y195924D01*
X302982Y211173D02*
X319238Y211173D01*
X319238Y220204D02*
X302982Y211173D01*
X302982Y220204D02*
X319238Y220204D01*
X319238Y330762D02*
X319238Y336181D01*
X319236Y336299D01*
X319230Y336417D01*
X319221Y336535D01*
X319207Y336652D01*
X319190Y336769D01*
X319169Y336886D01*
X319144Y337001D01*
X319115Y337116D01*
X319082Y337230D01*
X319046Y337342D01*
X319006Y337453D01*
X318963Y337563D01*
X318916Y337672D01*
X318866Y337779D01*
X318811Y337884D01*
X318754Y337987D01*
X318693Y338088D01*
X318629Y338188D01*
X318562Y338285D01*
X318492Y338380D01*
X318418Y338472D01*
X318342Y338563D01*
X318262Y338650D01*
X318180Y338735D01*
X318095Y338817D01*
X318008Y338897D01*
X317917Y338973D01*
X317825Y339047D01*
X317730Y339117D01*
X317633Y339184D01*
X317533Y339248D01*
X317432Y339309D01*
X317329Y339366D01*
X317224Y339421D01*
X317117Y339471D01*
X317008Y339518D01*
X316898Y339561D01*
X316787Y339601D01*
X316675Y339637D01*
X316561Y339670D01*
X316446Y339699D01*
X316331Y339724D01*
X316214Y339745D01*
X316097Y339762D01*
X315980Y339776D01*
X315862Y339785D01*
X315744Y339791D01*
X315626Y339793D01*
X313819Y339793D01*
X313701Y339791D01*
X313583Y339785D01*
X313465Y339776D01*
X313348Y339762D01*
X313231Y339745D01*
X313114Y339724D01*
X312999Y339699D01*
X312884Y339670D01*
X312770Y339637D01*
X312658Y339601D01*
X312547Y339561D01*
X312437Y339518D01*
X312328Y339471D01*
X312221Y339421D01*
X312116Y339366D01*
X312013Y339309D01*
X311912Y339248D01*
X311812Y339184D01*
X311715Y339117D01*
X311620Y339047D01*
X311528Y338973D01*
X311437Y338897D01*
X311350Y338817D01*
X311265Y338735D01*
X311183Y338650D01*
X311103Y338563D01*
X311027Y338472D01*
X310953Y338380D01*
X310883Y338285D01*
X310816Y338188D01*
X310752Y338088D01*
X310691Y337987D01*
X310634Y337884D01*
X310579Y337779D01*
X310529Y337672D01*
X310482Y337563D01*
X310439Y337453D01*
X310399Y337342D01*
X310363Y337230D01*
X310330Y337116D01*
X310301Y337001D01*
X310276Y336886D01*
X310255Y336769D01*
X310238Y336652D01*
X310224Y336535D01*
X310215Y336417D01*
X310209Y336299D01*
X310207Y336181D01*
X310207Y330762D01*
X302982Y330762D01*
X302982Y339793D01*
X308401Y345733D02*
X319238Y349346D01*
X308401Y352958D01*
X397987Y345891D02*
X397987Y343182D01*
X397987Y345891D02*
X407018Y345891D01*
X407018Y340473D01*
X407016Y340355D01*
X407010Y340237D01*
X407001Y340119D01*
X406987Y340002D01*
X406970Y339885D01*
X406949Y339768D01*
X406924Y339653D01*
X406895Y339538D01*
X406862Y339424D01*
X406826Y339312D01*
X406786Y339201D01*
X406743Y339091D01*
X406696Y338982D01*
X406646Y338875D01*
X406591Y338770D01*
X406534Y338667D01*
X406473Y338566D01*
X406409Y338466D01*
X406342Y338369D01*
X406272Y338274D01*
X406198Y338182D01*
X406122Y338091D01*
X406042Y338004D01*
X405960Y337919D01*
X405875Y337837D01*
X405788Y337757D01*
X405697Y337681D01*
X405605Y337607D01*
X405510Y337537D01*
X405413Y337470D01*
X405313Y337406D01*
X405212Y337345D01*
X405109Y337288D01*
X405004Y337233D01*
X404897Y337183D01*
X404788Y337136D01*
X404678Y337093D01*
X404567Y337053D01*
X404455Y337017D01*
X404341Y336984D01*
X404226Y336955D01*
X404111Y336930D01*
X403994Y336909D01*
X403877Y336892D01*
X403760Y336878D01*
X403642Y336869D01*
X403524Y336863D01*
X403406Y336861D01*
X403406Y336860D02*
X394374Y336860D01*
X394256Y336862D01*
X394138Y336868D01*
X394020Y336877D01*
X393902Y336891D01*
X393785Y336908D01*
X393669Y336929D01*
X393554Y336954D01*
X393439Y336983D01*
X393325Y337016D01*
X393213Y337052D01*
X393101Y337092D01*
X392991Y337135D01*
X392883Y337182D01*
X392776Y337233D01*
X392671Y337287D01*
X392568Y337344D01*
X392466Y337405D01*
X392367Y337469D01*
X392270Y337536D01*
X392175Y337607D01*
X392082Y337680D01*
X391992Y337757D01*
X391904Y337836D01*
X391819Y337918D01*
X391737Y338003D01*
X391658Y338091D01*
X391581Y338181D01*
X391508Y338274D01*
X391437Y338368D01*
X391370Y338466D01*
X391306Y338565D01*
X391245Y338666D01*
X391188Y338770D01*
X391134Y338875D01*
X391083Y338982D01*
X391036Y339090D01*
X390993Y339200D01*
X390953Y339312D01*
X390917Y339424D01*
X390884Y339538D01*
X390855Y339653D01*
X390830Y339768D01*
X390809Y339884D01*
X390792Y340001D01*
X390778Y340119D01*
X390769Y340237D01*
X390763Y340355D01*
X390761Y340473D01*
X390762Y340473D02*
X390762Y345891D01*
X390762Y353534D02*
X407018Y353534D01*
X407018Y362565D02*
X390762Y353534D01*
X390762Y362565D02*
X407018Y362565D01*
X407018Y370207D02*
X390762Y370207D01*
X390762Y374722D01*
X390764Y374853D01*
X390770Y374985D01*
X390779Y375116D01*
X390793Y375246D01*
X390810Y375377D01*
X390831Y375506D01*
X390855Y375635D01*
X390884Y375763D01*
X390916Y375891D01*
X390952Y376017D01*
X390991Y376142D01*
X391034Y376267D01*
X391081Y376389D01*
X391131Y376511D01*
X391185Y376631D01*
X391242Y376749D01*
X391303Y376865D01*
X391367Y376980D01*
X391434Y377093D01*
X391505Y377204D01*
X391579Y377312D01*
X391656Y377419D01*
X391736Y377523D01*
X391819Y377625D01*
X391904Y377724D01*
X391993Y377821D01*
X392085Y377915D01*
X392179Y378007D01*
X392276Y378096D01*
X392375Y378181D01*
X392477Y378264D01*
X392581Y378344D01*
X392688Y378421D01*
X392796Y378495D01*
X392907Y378566D01*
X393020Y378633D01*
X393135Y378697D01*
X393251Y378758D01*
X393369Y378815D01*
X393489Y378869D01*
X393611Y378919D01*
X393733Y378966D01*
X393858Y379009D01*
X393983Y379048D01*
X394109Y379084D01*
X394237Y379116D01*
X394365Y379145D01*
X394494Y379169D01*
X394623Y379190D01*
X394754Y379207D01*
X394884Y379221D01*
X395015Y379230D01*
X395147Y379236D01*
X395278Y379238D01*
X402502Y379238D01*
X402633Y379236D01*
X402765Y379230D01*
X402896Y379221D01*
X403026Y379207D01*
X403157Y379190D01*
X403286Y379169D01*
X403415Y379145D01*
X403543Y379116D01*
X403671Y379084D01*
X403797Y379048D01*
X403922Y379009D01*
X404047Y378966D01*
X404169Y378919D01*
X404291Y378869D01*
X404411Y378815D01*
X404529Y378758D01*
X404645Y378697D01*
X404760Y378633D01*
X404873Y378566D01*
X404984Y378495D01*
X405092Y378421D01*
X405199Y378344D01*
X405303Y378264D01*
X405405Y378181D01*
X405504Y378096D01*
X405601Y378007D01*
X405695Y377915D01*
X405787Y377821D01*
X405876Y377724D01*
X405961Y377625D01*
X406044Y377523D01*
X406124Y377419D01*
X406201Y377312D01*
X406275Y377204D01*
X406346Y377093D01*
X406413Y376980D01*
X406477Y376865D01*
X406538Y376749D01*
X406595Y376631D01*
X406649Y376511D01*
X406699Y376389D01*
X406746Y376267D01*
X406789Y376142D01*
X406828Y376017D01*
X406864Y375891D01*
X406896Y375763D01*
X406925Y375635D01*
X406949Y375506D01*
X406970Y375376D01*
X406987Y375246D01*
X407001Y375116D01*
X407010Y374985D01*
X407016Y374853D01*
X407018Y374722D01*
X407018Y370207D01*
X284243Y522982D02*
X284361Y522984D01*
X284479Y522990D01*
X284597Y522999D01*
X284714Y523013D01*
X284831Y523030D01*
X284948Y523051D01*
X285063Y523076D01*
X285178Y523105D01*
X285292Y523138D01*
X285404Y523174D01*
X285515Y523214D01*
X285625Y523257D01*
X285734Y523304D01*
X285841Y523354D01*
X285946Y523409D01*
X286049Y523466D01*
X286150Y523527D01*
X286250Y523591D01*
X286347Y523658D01*
X286442Y523728D01*
X286534Y523802D01*
X286625Y523878D01*
X286712Y523958D01*
X286797Y524040D01*
X286879Y524125D01*
X286959Y524212D01*
X287035Y524303D01*
X287109Y524395D01*
X287179Y524490D01*
X287246Y524587D01*
X287310Y524687D01*
X287371Y524788D01*
X287428Y524891D01*
X287483Y524996D01*
X287533Y525103D01*
X287580Y525212D01*
X287623Y525322D01*
X287663Y525433D01*
X287699Y525545D01*
X287732Y525659D01*
X287761Y525774D01*
X287786Y525889D01*
X287807Y526006D01*
X287824Y526123D01*
X287838Y526240D01*
X287847Y526358D01*
X287853Y526476D01*
X287855Y526594D01*
X284243Y522982D02*
X284060Y522984D01*
X283878Y522991D01*
X283696Y523002D01*
X283514Y523017D01*
X283332Y523037D01*
X283151Y523060D01*
X282971Y523089D01*
X282791Y523121D01*
X282612Y523158D01*
X282435Y523199D01*
X282258Y523245D01*
X282082Y523294D01*
X281908Y523348D01*
X281734Y523406D01*
X281563Y523468D01*
X281393Y523534D01*
X281224Y523605D01*
X281057Y523679D01*
X280892Y523757D01*
X280729Y523839D01*
X280568Y523925D01*
X280409Y524015D01*
X280252Y524109D01*
X280098Y524206D01*
X279946Y524307D01*
X279796Y524412D01*
X279649Y524520D01*
X279505Y524631D01*
X279363Y524746D01*
X279224Y524865D01*
X279088Y524987D01*
X278955Y525112D01*
X278825Y525240D01*
X279276Y535626D02*
X279278Y535744D01*
X279284Y535862D01*
X279293Y535980D01*
X279307Y536097D01*
X279324Y536214D01*
X279345Y536331D01*
X279370Y536446D01*
X279399Y536561D01*
X279432Y536675D01*
X279468Y536787D01*
X279508Y536898D01*
X279551Y537008D01*
X279598Y537117D01*
X279648Y537224D01*
X279703Y537329D01*
X279760Y537432D01*
X279821Y537533D01*
X279885Y537633D01*
X279952Y537730D01*
X280022Y537825D01*
X280096Y537917D01*
X280172Y538008D01*
X280252Y538095D01*
X280334Y538180D01*
X280419Y538262D01*
X280506Y538342D01*
X280597Y538418D01*
X280689Y538492D01*
X280784Y538562D01*
X280881Y538629D01*
X280981Y538693D01*
X281082Y538754D01*
X281185Y538812D01*
X281290Y538866D01*
X281397Y538916D01*
X281506Y538963D01*
X281616Y539007D01*
X281727Y539046D01*
X281840Y539082D01*
X281953Y539115D01*
X282068Y539144D01*
X282183Y539169D01*
X282300Y539190D01*
X282417Y539207D01*
X282534Y539221D01*
X282652Y539230D01*
X282770Y539236D01*
X282888Y539238D01*
X283049Y539236D01*
X283211Y539230D01*
X283372Y539221D01*
X283533Y539207D01*
X283693Y539190D01*
X283853Y539169D01*
X284013Y539144D01*
X284172Y539115D01*
X284330Y539083D01*
X284487Y539047D01*
X284643Y539007D01*
X284799Y538963D01*
X284953Y538915D01*
X285106Y538864D01*
X285258Y538810D01*
X285409Y538751D01*
X285558Y538690D01*
X285705Y538624D01*
X285851Y538555D01*
X285996Y538483D01*
X286138Y538407D01*
X286279Y538328D01*
X286418Y538246D01*
X286554Y538160D01*
X286689Y538071D01*
X286822Y537979D01*
X286952Y537883D01*
X281082Y532465D02*
X280981Y532527D01*
X280881Y532592D01*
X280784Y532661D01*
X280689Y532733D01*
X280596Y532807D01*
X280506Y532885D01*
X280418Y532966D01*
X280333Y533049D01*
X280251Y533135D01*
X280172Y533224D01*
X280095Y533315D01*
X280022Y533409D01*
X279951Y533505D01*
X279884Y533603D01*
X279820Y533703D01*
X279759Y533806D01*
X279702Y533910D01*
X279648Y534016D01*
X279598Y534124D01*
X279551Y534233D01*
X279507Y534344D01*
X279467Y534456D01*
X279431Y534570D01*
X279399Y534684D01*
X279370Y534800D01*
X279345Y534916D01*
X279324Y535033D01*
X279307Y535151D01*
X279293Y535269D01*
X279284Y535388D01*
X279278Y535507D01*
X279276Y535626D01*
X286050Y529755D02*
X286151Y529693D01*
X286251Y529628D01*
X286348Y529559D01*
X286443Y529487D01*
X286536Y529413D01*
X286626Y529335D01*
X286714Y529254D01*
X286799Y529171D01*
X286881Y529085D01*
X286960Y528996D01*
X287037Y528905D01*
X287110Y528811D01*
X287181Y528715D01*
X287248Y528617D01*
X287312Y528517D01*
X287373Y528414D01*
X287430Y528310D01*
X287484Y528204D01*
X287534Y528096D01*
X287581Y527987D01*
X287625Y527876D01*
X287665Y527764D01*
X287701Y527650D01*
X287733Y527536D01*
X287762Y527420D01*
X287787Y527304D01*
X287808Y527187D01*
X287825Y527069D01*
X287839Y526951D01*
X287848Y526832D01*
X287854Y526713D01*
X287856Y526594D01*
X286049Y529755D02*
X281082Y532465D01*
X293309Y539238D02*
X296922Y522982D01*
X300534Y533819D01*
X304147Y522982D01*
X307759Y539238D01*
X315123Y539238D02*
X315123Y522982D01*
X313317Y522982D02*
X316930Y522982D01*
X316930Y539238D02*
X313317Y539238D01*
X326586Y539238D02*
X326586Y522982D01*
X322071Y539238D02*
X331102Y539238D01*
X340233Y522982D02*
X343845Y522982D01*
X340233Y522982D02*
X340115Y522984D01*
X339997Y522990D01*
X339879Y522999D01*
X339762Y523013D01*
X339645Y523030D01*
X339528Y523051D01*
X339413Y523076D01*
X339298Y523105D01*
X339184Y523138D01*
X339072Y523174D01*
X338961Y523214D01*
X338851Y523257D01*
X338742Y523304D01*
X338635Y523354D01*
X338530Y523409D01*
X338427Y523466D01*
X338326Y523527D01*
X338226Y523591D01*
X338129Y523658D01*
X338034Y523728D01*
X337942Y523802D01*
X337851Y523878D01*
X337764Y523958D01*
X337679Y524040D01*
X337597Y524125D01*
X337517Y524212D01*
X337441Y524303D01*
X337367Y524395D01*
X337297Y524490D01*
X337230Y524587D01*
X337166Y524687D01*
X337105Y524788D01*
X337048Y524891D01*
X336993Y524996D01*
X336943Y525103D01*
X336896Y525212D01*
X336853Y525322D01*
X336813Y525433D01*
X336777Y525545D01*
X336744Y525659D01*
X336715Y525774D01*
X336690Y525889D01*
X336669Y526006D01*
X336652Y526123D01*
X336638Y526240D01*
X336629Y526358D01*
X336623Y526476D01*
X336621Y526594D01*
X336620Y526594D02*
X336620Y535626D01*
X336621Y535626D02*
X336623Y535744D01*
X336629Y535862D01*
X336638Y535980D01*
X336652Y536097D01*
X336669Y536214D01*
X336690Y536331D01*
X336715Y536446D01*
X336744Y536561D01*
X336777Y536675D01*
X336813Y536787D01*
X336853Y536898D01*
X336896Y537008D01*
X336943Y537117D01*
X336993Y537224D01*
X337047Y537329D01*
X337105Y537432D01*
X337166Y537533D01*
X337230Y537633D01*
X337297Y537730D01*
X337367Y537825D01*
X337441Y537917D01*
X337517Y538008D01*
X337597Y538095D01*
X337679Y538180D01*
X337764Y538262D01*
X337851Y538342D01*
X337942Y538418D01*
X338034Y538492D01*
X338129Y538562D01*
X338226Y538629D01*
X338326Y538693D01*
X338427Y538754D01*
X338530Y538811D01*
X338635Y538865D01*
X338742Y538916D01*
X338851Y538963D01*
X338961Y539006D01*
X339072Y539046D01*
X339184Y539082D01*
X339298Y539115D01*
X339413Y539144D01*
X339528Y539169D01*
X339645Y539190D01*
X339762Y539207D01*
X339879Y539221D01*
X339997Y539230D01*
X340115Y539236D01*
X340233Y539238D01*
X343845Y539238D01*
X350207Y539238D02*
X350207Y522982D01*
X350207Y532013D02*
X359238Y532013D01*
X359238Y539238D02*
X359238Y522982D01*
X412982Y860762D02*
X429238Y860762D01*
X420207Y860762D02*
X420207Y869793D01*
X412982Y869793D02*
X429238Y869793D01*
X429238Y880487D02*
X429238Y884100D01*
X429238Y880487D02*
X429236Y880369D01*
X429230Y880251D01*
X429221Y880133D01*
X429207Y880016D01*
X429190Y879899D01*
X429169Y879782D01*
X429144Y879667D01*
X429115Y879552D01*
X429082Y879438D01*
X429046Y879326D01*
X429006Y879215D01*
X428963Y879105D01*
X428916Y878996D01*
X428866Y878889D01*
X428811Y878784D01*
X428754Y878681D01*
X428693Y878580D01*
X428629Y878480D01*
X428562Y878383D01*
X428492Y878288D01*
X428418Y878196D01*
X428342Y878105D01*
X428262Y878018D01*
X428180Y877933D01*
X428095Y877851D01*
X428008Y877771D01*
X427917Y877695D01*
X427825Y877621D01*
X427730Y877551D01*
X427633Y877484D01*
X427533Y877420D01*
X427432Y877359D01*
X427329Y877302D01*
X427224Y877247D01*
X427117Y877197D01*
X427008Y877150D01*
X426898Y877107D01*
X426787Y877067D01*
X426675Y877031D01*
X426561Y876998D01*
X426446Y876969D01*
X426331Y876944D01*
X426214Y876923D01*
X426097Y876906D01*
X425980Y876892D01*
X425862Y876883D01*
X425744Y876877D01*
X425626Y876875D01*
X416594Y876875D01*
X416594Y876874D02*
X416476Y876876D01*
X416358Y876882D01*
X416240Y876891D01*
X416122Y876905D01*
X416005Y876922D01*
X415889Y876943D01*
X415774Y876968D01*
X415659Y876997D01*
X415545Y877030D01*
X415433Y877066D01*
X415321Y877106D01*
X415211Y877149D01*
X415103Y877196D01*
X414996Y877247D01*
X414891Y877301D01*
X414788Y877358D01*
X414686Y877419D01*
X414587Y877483D01*
X414490Y877550D01*
X414395Y877621D01*
X414302Y877694D01*
X414212Y877771D01*
X414124Y877850D01*
X414039Y877932D01*
X413957Y878017D01*
X413878Y878105D01*
X413801Y878195D01*
X413728Y878288D01*
X413657Y878382D01*
X413590Y878480D01*
X413526Y878579D01*
X413465Y878680D01*
X413408Y878784D01*
X413354Y878889D01*
X413303Y878996D01*
X413256Y879104D01*
X413213Y879214D01*
X413173Y879326D01*
X413137Y879438D01*
X413104Y879552D01*
X413075Y879667D01*
X413050Y879782D01*
X413029Y879898D01*
X413012Y880015D01*
X412998Y880133D01*
X412989Y880251D01*
X412983Y880369D01*
X412981Y880487D01*
X412982Y880487D02*
X412982Y884100D01*
X425626Y898450D02*
X425744Y898448D01*
X425862Y898442D01*
X425980Y898433D01*
X426097Y898419D01*
X426214Y898402D01*
X426331Y898381D01*
X426446Y898356D01*
X426561Y898327D01*
X426675Y898294D01*
X426787Y898258D01*
X426898Y898218D01*
X427008Y898175D01*
X427117Y898128D01*
X427224Y898078D01*
X427329Y898023D01*
X427432Y897966D01*
X427533Y897905D01*
X427633Y897841D01*
X427730Y897774D01*
X427825Y897704D01*
X427917Y897630D01*
X428008Y897554D01*
X428095Y897474D01*
X428180Y897392D01*
X428262Y897307D01*
X428342Y897220D01*
X428418Y897129D01*
X428492Y897037D01*
X428562Y896942D01*
X428629Y896845D01*
X428693Y896745D01*
X428754Y896644D01*
X428811Y896541D01*
X428866Y896436D01*
X428916Y896329D01*
X428963Y896220D01*
X429006Y896110D01*
X429046Y895999D01*
X429082Y895887D01*
X429115Y895773D01*
X429144Y895658D01*
X429169Y895543D01*
X429190Y895426D01*
X429207Y895309D01*
X429221Y895192D01*
X429230Y895074D01*
X429236Y894956D01*
X429238Y894838D01*
X429236Y894655D01*
X429229Y894473D01*
X429218Y894291D01*
X429203Y894109D01*
X429183Y893927D01*
X429160Y893746D01*
X429131Y893566D01*
X429099Y893386D01*
X429062Y893207D01*
X429021Y893030D01*
X428975Y892853D01*
X428926Y892677D01*
X428872Y892503D01*
X428814Y892329D01*
X428752Y892158D01*
X428686Y891988D01*
X428615Y891819D01*
X428541Y891652D01*
X428463Y891487D01*
X428381Y891324D01*
X428295Y891163D01*
X428205Y891004D01*
X428111Y890847D01*
X428014Y890693D01*
X427913Y890541D01*
X427808Y890391D01*
X427700Y890244D01*
X427589Y890100D01*
X427474Y889958D01*
X427355Y889819D01*
X427233Y889683D01*
X427108Y889550D01*
X426980Y889420D01*
X416594Y889871D02*
X416476Y889873D01*
X416358Y889879D01*
X416240Y889888D01*
X416123Y889902D01*
X416006Y889919D01*
X415889Y889940D01*
X415774Y889965D01*
X415659Y889994D01*
X415545Y890027D01*
X415433Y890063D01*
X415322Y890103D01*
X415212Y890146D01*
X415103Y890193D01*
X414996Y890243D01*
X414891Y890298D01*
X414788Y890355D01*
X414687Y890416D01*
X414587Y890480D01*
X414490Y890547D01*
X414395Y890617D01*
X414303Y890691D01*
X414212Y890767D01*
X414125Y890847D01*
X414040Y890929D01*
X413958Y891014D01*
X413878Y891101D01*
X413802Y891192D01*
X413728Y891284D01*
X413658Y891379D01*
X413591Y891476D01*
X413527Y891576D01*
X413466Y891677D01*
X413409Y891780D01*
X413354Y891885D01*
X413304Y891992D01*
X413257Y892101D01*
X413214Y892211D01*
X413174Y892322D01*
X413138Y892434D01*
X413105Y892548D01*
X413076Y892663D01*
X413051Y892778D01*
X413030Y892895D01*
X413013Y893012D01*
X412999Y893129D01*
X412990Y893247D01*
X412984Y893365D01*
X412982Y893483D01*
X412984Y893644D01*
X412990Y893806D01*
X412999Y893967D01*
X413013Y894128D01*
X413030Y894288D01*
X413051Y894448D01*
X413076Y894608D01*
X413105Y894767D01*
X413137Y894925D01*
X413173Y895082D01*
X413213Y895238D01*
X413257Y895394D01*
X413305Y895548D01*
X413356Y895701D01*
X413410Y895853D01*
X413469Y896004D01*
X413530Y896153D01*
X413596Y896300D01*
X413665Y896446D01*
X413737Y896591D01*
X413813Y896733D01*
X413892Y896874D01*
X413974Y897013D01*
X414060Y897149D01*
X414149Y897284D01*
X414241Y897417D01*
X414337Y897547D01*
X419755Y891677D02*
X419693Y891576D01*
X419628Y891476D01*
X419559Y891379D01*
X419487Y891284D01*
X419413Y891191D01*
X419335Y891101D01*
X419254Y891013D01*
X419171Y890928D01*
X419085Y890846D01*
X418996Y890767D01*
X418905Y890690D01*
X418811Y890617D01*
X418715Y890546D01*
X418617Y890479D01*
X418517Y890415D01*
X418414Y890354D01*
X418310Y890297D01*
X418204Y890243D01*
X418096Y890193D01*
X417987Y890146D01*
X417876Y890102D01*
X417764Y890062D01*
X417650Y890026D01*
X417536Y889994D01*
X417420Y889965D01*
X417304Y889940D01*
X417187Y889919D01*
X417069Y889902D01*
X416951Y889888D01*
X416832Y889879D01*
X416713Y889873D01*
X416594Y889871D01*
X422465Y896644D02*
X422527Y896745D01*
X422592Y896845D01*
X422661Y896942D01*
X422733Y897037D01*
X422807Y897130D01*
X422885Y897220D01*
X422966Y897308D01*
X423049Y897393D01*
X423135Y897475D01*
X423224Y897554D01*
X423315Y897631D01*
X423409Y897704D01*
X423505Y897775D01*
X423603Y897842D01*
X423703Y897906D01*
X423806Y897967D01*
X423910Y898024D01*
X424016Y898078D01*
X424124Y898128D01*
X424233Y898175D01*
X424344Y898219D01*
X424456Y898259D01*
X424570Y898295D01*
X424684Y898327D01*
X424800Y898356D01*
X424916Y898381D01*
X425033Y898402D01*
X425151Y898419D01*
X425269Y898433D01*
X425388Y898442D01*
X425507Y898448D01*
X425626Y898450D01*
X422465Y896644D02*
X419755Y891677D01*
X412982Y905142D02*
X429238Y905142D01*
X412982Y905142D02*
X412982Y909658D01*
X412984Y909791D01*
X412990Y909923D01*
X413000Y910055D01*
X413013Y910187D01*
X413031Y910319D01*
X413052Y910449D01*
X413077Y910580D01*
X413106Y910709D01*
X413139Y910837D01*
X413175Y910965D01*
X413215Y911091D01*
X413259Y911216D01*
X413307Y911340D01*
X413358Y911462D01*
X413413Y911583D01*
X413471Y911702D01*
X413533Y911820D01*
X413598Y911935D01*
X413667Y912049D01*
X413738Y912160D01*
X413814Y912269D01*
X413892Y912376D01*
X413973Y912481D01*
X414058Y912583D01*
X414145Y912683D01*
X414235Y912780D01*
X414328Y912875D01*
X414424Y912966D01*
X414522Y913055D01*
X414623Y913141D01*
X414727Y913224D01*
X414833Y913304D01*
X414941Y913380D01*
X415051Y913454D01*
X415164Y913524D01*
X415278Y913591D01*
X415395Y913654D01*
X415513Y913714D01*
X415633Y913771D01*
X415755Y913824D01*
X415878Y913873D01*
X416002Y913919D01*
X416128Y913961D01*
X416255Y913999D01*
X416383Y914034D01*
X416512Y914065D01*
X416641Y914092D01*
X416772Y914115D01*
X416903Y914135D01*
X417035Y914150D01*
X417167Y914162D01*
X417299Y914170D01*
X417432Y914174D01*
X417564Y914174D01*
X417697Y914170D01*
X417829Y914162D01*
X417961Y914150D01*
X418093Y914135D01*
X418224Y914115D01*
X418355Y914092D01*
X418484Y914065D01*
X418613Y914034D01*
X418741Y913999D01*
X418868Y913961D01*
X418994Y913919D01*
X419118Y913873D01*
X419241Y913824D01*
X419363Y913771D01*
X419483Y913714D01*
X419601Y913654D01*
X419718Y913591D01*
X419832Y913524D01*
X419945Y913454D01*
X420055Y913380D01*
X420163Y913304D01*
X420269Y913224D01*
X420373Y913141D01*
X420474Y913055D01*
X420572Y912966D01*
X420668Y912875D01*
X420761Y912780D01*
X420851Y912683D01*
X420938Y912583D01*
X421023Y912481D01*
X421104Y912376D01*
X421182Y912269D01*
X421258Y912160D01*
X421329Y912049D01*
X421398Y911935D01*
X421463Y911820D01*
X421525Y911702D01*
X421583Y911583D01*
X421638Y911462D01*
X421689Y911340D01*
X421737Y911216D01*
X421781Y911091D01*
X421821Y910965D01*
X421857Y910837D01*
X421890Y910709D01*
X421919Y910580D01*
X421944Y910449D01*
X421965Y910319D01*
X421983Y910187D01*
X421996Y910055D01*
X422006Y909923D01*
X422012Y909791D01*
X422014Y909658D01*
X422013Y909658D02*
X422013Y905142D01*
X422013Y910561D02*
X429238Y914173D01*
X421110Y920682D02*
X420790Y920686D01*
X420471Y920697D01*
X420151Y920716D01*
X419833Y920743D01*
X419515Y920777D01*
X419198Y920819D01*
X418882Y920869D01*
X418567Y920926D01*
X418254Y920990D01*
X417942Y921062D01*
X417632Y921141D01*
X417325Y921228D01*
X417019Y921322D01*
X416716Y921423D01*
X416415Y921532D01*
X416117Y921647D01*
X415821Y921770D01*
X415529Y921900D01*
X415240Y922037D01*
X415239Y922037D02*
X415131Y922076D01*
X415024Y922119D01*
X414919Y922165D01*
X414816Y922215D01*
X414714Y922269D01*
X414614Y922326D01*
X414516Y922387D01*
X414420Y922451D01*
X414327Y922518D01*
X414236Y922588D01*
X414147Y922662D01*
X414061Y922738D01*
X413978Y922818D01*
X413897Y922900D01*
X413819Y922985D01*
X413745Y923072D01*
X413673Y923163D01*
X413604Y923255D01*
X413539Y923350D01*
X413477Y923447D01*
X413418Y923546D01*
X413363Y923647D01*
X413312Y923750D01*
X413264Y923855D01*
X413219Y923961D01*
X413178Y924068D01*
X413141Y924177D01*
X413108Y924288D01*
X413079Y924399D01*
X413053Y924511D01*
X413031Y924624D01*
X413014Y924738D01*
X413000Y924852D01*
X412990Y924967D01*
X412984Y925082D01*
X412982Y925197D01*
X412984Y925312D01*
X412990Y925427D01*
X413000Y925542D01*
X413014Y925656D01*
X413031Y925770D01*
X413053Y925883D01*
X413079Y925995D01*
X413108Y926107D01*
X413141Y926217D01*
X413178Y926326D01*
X413219Y926434D01*
X413264Y926540D01*
X413312Y926645D01*
X413363Y926747D01*
X413419Y926849D01*
X413477Y926948D01*
X413539Y927045D01*
X413605Y927140D01*
X413673Y927232D01*
X413745Y927322D01*
X413819Y927410D01*
X413897Y927495D01*
X413978Y927577D01*
X414061Y927656D01*
X414147Y927733D01*
X414236Y927806D01*
X414327Y927877D01*
X414421Y927944D01*
X414516Y928008D01*
X414614Y928069D01*
X414714Y928126D01*
X414816Y928179D01*
X414920Y928230D01*
X415025Y928276D01*
X415132Y928319D01*
X415240Y928358D01*
X415529Y928495D01*
X415821Y928625D01*
X416117Y928748D01*
X416415Y928863D01*
X416716Y928972D01*
X417019Y929073D01*
X417325Y929167D01*
X417632Y929254D01*
X417942Y929333D01*
X418254Y929405D01*
X418567Y929469D01*
X418882Y929526D01*
X419198Y929576D01*
X419515Y929618D01*
X419833Y929652D01*
X420151Y929679D01*
X420471Y929698D01*
X420790Y929709D01*
X421110Y929713D01*
X421110Y920682D02*
X421430Y920686D01*
X421749Y920697D01*
X422069Y920716D01*
X422387Y920743D01*
X422705Y920777D01*
X423022Y920819D01*
X423338Y920869D01*
X423653Y920926D01*
X423966Y920990D01*
X424278Y921062D01*
X424588Y921141D01*
X424895Y921228D01*
X425201Y921322D01*
X425504Y921423D01*
X425805Y921532D01*
X426103Y921647D01*
X426399Y921770D01*
X426691Y921900D01*
X426980Y922037D01*
X426981Y922036D02*
X427089Y922075D01*
X427196Y922118D01*
X427301Y922164D01*
X427405Y922215D01*
X427507Y922268D01*
X427607Y922325D01*
X427705Y922386D01*
X427800Y922450D01*
X427894Y922517D01*
X427985Y922588D01*
X428074Y922661D01*
X428160Y922738D01*
X428243Y922817D01*
X428324Y922899D01*
X428402Y922984D01*
X428476Y923072D01*
X428548Y923162D01*
X428617Y923255D01*
X428682Y923349D01*
X428744Y923446D01*
X428802Y923546D01*
X428858Y923647D01*
X428909Y923749D01*
X428957Y923854D01*
X429002Y923960D01*
X429043Y924068D01*
X429080Y924177D01*
X429113Y924287D01*
X429142Y924399D01*
X429168Y924511D01*
X429190Y924624D01*
X429207Y924738D01*
X429221Y924852D01*
X429231Y924967D01*
X429237Y925082D01*
X429239Y925197D01*
X426980Y928357D02*
X426691Y928494D01*
X426399Y928624D01*
X426103Y928747D01*
X425805Y928862D01*
X425504Y928971D01*
X425201Y929072D01*
X424895Y929166D01*
X424588Y929253D01*
X424278Y929332D01*
X423966Y929404D01*
X423653Y929468D01*
X423338Y929525D01*
X423022Y929575D01*
X422705Y929617D01*
X422387Y929651D01*
X422069Y929678D01*
X421749Y929697D01*
X421430Y929708D01*
X421110Y929712D01*
X426980Y928358D02*
X427088Y928319D01*
X427195Y928276D01*
X427300Y928230D01*
X427404Y928179D01*
X427506Y928126D01*
X427606Y928069D01*
X427704Y928008D01*
X427799Y927944D01*
X427893Y927877D01*
X427984Y927806D01*
X428073Y927733D01*
X428159Y927656D01*
X428242Y927577D01*
X428323Y927495D01*
X428401Y927410D01*
X428475Y927322D01*
X428547Y927232D01*
X428616Y927139D01*
X428681Y927045D01*
X428743Y926948D01*
X428801Y926848D01*
X428857Y926747D01*
X428908Y926644D01*
X428956Y926540D01*
X429001Y926434D01*
X429042Y926326D01*
X429079Y926217D01*
X429112Y926107D01*
X429141Y925995D01*
X429167Y925883D01*
X429189Y925770D01*
X429206Y925656D01*
X429220Y925542D01*
X429230Y925427D01*
X429236Y925312D01*
X429238Y925197D01*
X425626Y921585D02*
X416594Y928810D01*
X412982Y939925D02*
X425626Y936313D01*
X425626Y945344D01*
X422013Y942635D02*
X429238Y942635D01*
X282820Y481020D02*
X280280Y481020D01*
X280280Y465780D01*
X282820Y465780D01*
X343780Y465780D02*
X346320Y465780D01*
X346320Y481020D01*
X343780Y481020D01*
D11*
X326000Y445460D02*
X326000Y442920D01*
X326000Y445460D02*
X300600Y445460D01*
X300600Y442920D01*
X301870Y501340D02*
X326000Y501340D01*
X301870Y501340D02*
X301870Y503880D01*
X326000Y503880D02*
X326000Y501340D01*
D10*
X326000Y503880D02*
X334890Y503880D01*
X300600Y442920D02*
X291710Y442920D01*
X300600Y442920D02*
X326000Y442920D01*
X334890Y442920D01*
X326000Y503880D02*
X301870Y503880D01*
X291710Y503880D01*
X282820Y483560D02*
X282820Y481020D01*
X282820Y465780D02*
X282820Y463240D01*
X343780Y481020D02*
X343780Y483560D01*
X343780Y465780D02*
X343780Y463240D01*
X295520Y473400D02*
X295525Y473836D01*
X295541Y474272D01*
X295568Y474708D01*
X295606Y475143D01*
X295654Y475576D01*
X295712Y476009D01*
X295782Y476440D01*
X295862Y476869D01*
X295952Y477296D01*
X296053Y477720D01*
X296164Y478142D01*
X296286Y478561D01*
X296417Y478977D01*
X296559Y479390D01*
X296711Y479799D01*
X296873Y480204D01*
X297045Y480605D01*
X297227Y481002D01*
X297418Y481394D01*
X297619Y481781D01*
X297830Y482164D01*
X298050Y482541D01*
X298279Y482912D01*
X298516Y483278D01*
X298763Y483638D01*
X299019Y483992D01*
X299283Y484339D01*
X299556Y484680D01*
X299837Y485013D01*
X300126Y485340D01*
X300423Y485660D01*
X300728Y485972D01*
X301040Y486277D01*
X301360Y486574D01*
X301687Y486863D01*
X302020Y487144D01*
X302361Y487417D01*
X302708Y487681D01*
X303062Y487937D01*
X303422Y488184D01*
X303788Y488421D01*
X304159Y488650D01*
X304536Y488870D01*
X304919Y489081D01*
X305306Y489282D01*
X305698Y489473D01*
X306095Y489655D01*
X306496Y489827D01*
X306901Y489989D01*
X307310Y490141D01*
X307723Y490283D01*
X308139Y490414D01*
X308558Y490536D01*
X308980Y490647D01*
X309404Y490748D01*
X309831Y490838D01*
X310260Y490918D01*
X310691Y490988D01*
X311124Y491046D01*
X311557Y491094D01*
X311992Y491132D01*
X312428Y491159D01*
X312864Y491175D01*
X313300Y491180D01*
X313736Y491175D01*
X314172Y491159D01*
X314608Y491132D01*
X315043Y491094D01*
X315476Y491046D01*
X315909Y490988D01*
X316340Y490918D01*
X316769Y490838D01*
X317196Y490748D01*
X317620Y490647D01*
X318042Y490536D01*
X318461Y490414D01*
X318877Y490283D01*
X319290Y490141D01*
X319699Y489989D01*
X320104Y489827D01*
X320505Y489655D01*
X320902Y489473D01*
X321294Y489282D01*
X321681Y489081D01*
X322064Y488870D01*
X322441Y488650D01*
X322812Y488421D01*
X323178Y488184D01*
X323538Y487937D01*
X323892Y487681D01*
X324239Y487417D01*
X324580Y487144D01*
X324913Y486863D01*
X325240Y486574D01*
X325560Y486277D01*
X325872Y485972D01*
X326177Y485660D01*
X326474Y485340D01*
X326763Y485013D01*
X327044Y484680D01*
X327317Y484339D01*
X327581Y483992D01*
X327837Y483638D01*
X328084Y483278D01*
X328321Y482912D01*
X328550Y482541D01*
X328770Y482164D01*
X328981Y481781D01*
X329182Y481394D01*
X329373Y481002D01*
X329555Y480605D01*
X329727Y480204D01*
X329889Y479799D01*
X330041Y479390D01*
X330183Y478977D01*
X330314Y478561D01*
X330436Y478142D01*
X330547Y477720D01*
X330648Y477296D01*
X330738Y476869D01*
X330818Y476440D01*
X330888Y476009D01*
X330946Y475576D01*
X330994Y475143D01*
X331032Y474708D01*
X331059Y474272D01*
X331075Y473836D01*
X331080Y473400D01*
X331075Y472964D01*
X331059Y472528D01*
X331032Y472092D01*
X330994Y471657D01*
X330946Y471224D01*
X330888Y470791D01*
X330818Y470360D01*
X330738Y469931D01*
X330648Y469504D01*
X330547Y469080D01*
X330436Y468658D01*
X330314Y468239D01*
X330183Y467823D01*
X330041Y467410D01*
X329889Y467001D01*
X329727Y466596D01*
X329555Y466195D01*
X329373Y465798D01*
X329182Y465406D01*
X328981Y465019D01*
X328770Y464636D01*
X328550Y464259D01*
X328321Y463888D01*
X328084Y463522D01*
X327837Y463162D01*
X327581Y462808D01*
X327317Y462461D01*
X327044Y462120D01*
X326763Y461787D01*
X326474Y461460D01*
X326177Y461140D01*
X325872Y460828D01*
X325560Y460523D01*
X325240Y460226D01*
X324913Y459937D01*
X324580Y459656D01*
X324239Y459383D01*
X323892Y459119D01*
X323538Y458863D01*
X323178Y458616D01*
X322812Y458379D01*
X322441Y458150D01*
X322064Y457930D01*
X321681Y457719D01*
X321294Y457518D01*
X320902Y457327D01*
X320505Y457145D01*
X320104Y456973D01*
X319699Y456811D01*
X319290Y456659D01*
X318877Y456517D01*
X318461Y456386D01*
X318042Y456264D01*
X317620Y456153D01*
X317196Y456052D01*
X316769Y455962D01*
X316340Y455882D01*
X315909Y455812D01*
X315476Y455754D01*
X315043Y455706D01*
X314608Y455668D01*
X314172Y455641D01*
X313736Y455625D01*
X313300Y455620D01*
X312864Y455625D01*
X312428Y455641D01*
X311992Y455668D01*
X311557Y455706D01*
X311124Y455754D01*
X310691Y455812D01*
X310260Y455882D01*
X309831Y455962D01*
X309404Y456052D01*
X308980Y456153D01*
X308558Y456264D01*
X308139Y456386D01*
X307723Y456517D01*
X307310Y456659D01*
X306901Y456811D01*
X306496Y456973D01*
X306095Y457145D01*
X305698Y457327D01*
X305306Y457518D01*
X304919Y457719D01*
X304536Y457930D01*
X304159Y458150D01*
X303788Y458379D01*
X303422Y458616D01*
X303062Y458863D01*
X302708Y459119D01*
X302361Y459383D01*
X302020Y459656D01*
X301687Y459937D01*
X301360Y460226D01*
X301040Y460523D01*
X300728Y460828D01*
X300423Y461140D01*
X300126Y461460D01*
X299837Y461787D01*
X299556Y462120D01*
X299283Y462461D01*
X299019Y462808D01*
X298763Y463162D01*
X298516Y463522D01*
X298279Y463888D01*
X298050Y464259D01*
X297830Y464636D01*
X297619Y465019D01*
X297418Y465406D01*
X297227Y465798D01*
X297045Y466195D01*
X296873Y466596D01*
X296711Y467001D01*
X296559Y467410D01*
X296417Y467823D01*
X296286Y468239D01*
X296164Y468658D01*
X296053Y469080D01*
X295952Y469504D01*
X295862Y469931D01*
X295782Y470360D01*
X295712Y470791D01*
X295654Y471224D01*
X295606Y471657D01*
X295568Y472092D01*
X295541Y472528D01*
X295525Y472964D01*
X295520Y473400D01*
X310760Y473400D02*
X310762Y473500D01*
X310768Y473601D01*
X310778Y473700D01*
X310792Y473800D01*
X310809Y473899D01*
X310831Y473997D01*
X310857Y474094D01*
X310886Y474190D01*
X310919Y474284D01*
X310956Y474378D01*
X310996Y474470D01*
X311040Y474560D01*
X311088Y474648D01*
X311139Y474735D01*
X311193Y474819D01*
X311251Y474901D01*
X311312Y474981D01*
X311376Y475058D01*
X311443Y475133D01*
X311513Y475205D01*
X311586Y475274D01*
X311661Y475340D01*
X311739Y475404D01*
X311819Y475464D01*
X311902Y475521D01*
X311987Y475574D01*
X312074Y475624D01*
X312163Y475671D01*
X312253Y475714D01*
X312345Y475754D01*
X312439Y475790D01*
X312534Y475822D01*
X312630Y475850D01*
X312728Y475875D01*
X312826Y475895D01*
X312925Y475912D01*
X313025Y475925D01*
X313124Y475934D01*
X313225Y475939D01*
X313325Y475940D01*
X313425Y475937D01*
X313526Y475930D01*
X313625Y475919D01*
X313725Y475904D01*
X313823Y475886D01*
X313921Y475863D01*
X314018Y475836D01*
X314113Y475806D01*
X314208Y475772D01*
X314301Y475734D01*
X314392Y475693D01*
X314482Y475648D01*
X314570Y475600D01*
X314656Y475548D01*
X314740Y475493D01*
X314821Y475434D01*
X314900Y475372D01*
X314977Y475308D01*
X315051Y475240D01*
X315122Y475169D01*
X315191Y475096D01*
X315256Y475020D01*
X315319Y474941D01*
X315378Y474860D01*
X315434Y474777D01*
X315487Y474692D01*
X315536Y474604D01*
X315582Y474515D01*
X315624Y474424D01*
X315663Y474331D01*
X315698Y474237D01*
X315729Y474142D01*
X315757Y474045D01*
X315780Y473948D01*
X315800Y473849D01*
X315816Y473750D01*
X315828Y473651D01*
X315836Y473550D01*
X315840Y473450D01*
X315840Y473350D01*
X315836Y473250D01*
X315828Y473149D01*
X315816Y473050D01*
X315800Y472951D01*
X315780Y472852D01*
X315757Y472755D01*
X315729Y472658D01*
X315698Y472563D01*
X315663Y472469D01*
X315624Y472376D01*
X315582Y472285D01*
X315536Y472196D01*
X315487Y472108D01*
X315434Y472023D01*
X315378Y471940D01*
X315319Y471859D01*
X315256Y471780D01*
X315191Y471704D01*
X315122Y471631D01*
X315051Y471560D01*
X314977Y471492D01*
X314900Y471428D01*
X314821Y471366D01*
X314740Y471307D01*
X314656Y471252D01*
X314570Y471200D01*
X314482Y471152D01*
X314392Y471107D01*
X314301Y471066D01*
X314208Y471028D01*
X314113Y470994D01*
X314018Y470964D01*
X313921Y470937D01*
X313823Y470914D01*
X313725Y470896D01*
X313625Y470881D01*
X313526Y470870D01*
X313425Y470863D01*
X313325Y470860D01*
X313225Y470861D01*
X313124Y470866D01*
X313025Y470875D01*
X312925Y470888D01*
X312826Y470905D01*
X312728Y470925D01*
X312630Y470950D01*
X312534Y470978D01*
X312439Y471010D01*
X312345Y471046D01*
X312253Y471086D01*
X312163Y471129D01*
X312074Y471176D01*
X311987Y471226D01*
X311902Y471279D01*
X311819Y471336D01*
X311739Y471396D01*
X311661Y471460D01*
X311586Y471526D01*
X311513Y471595D01*
X311443Y471667D01*
X311376Y471742D01*
X311312Y471819D01*
X311251Y471899D01*
X311193Y471981D01*
X311139Y472065D01*
X311088Y472152D01*
X311040Y472240D01*
X310996Y472330D01*
X310956Y472422D01*
X310919Y472516D01*
X310886Y472610D01*
X310857Y472706D01*
X310831Y472803D01*
X310809Y472901D01*
X310792Y473000D01*
X310778Y473100D01*
X310768Y473199D01*
X310762Y473300D01*
X310760Y473400D01*
D12*
X332096Y427045D02*
X332094Y426945D01*
X332088Y426846D01*
X332078Y426746D01*
X332065Y426648D01*
X332047Y426549D01*
X332026Y426452D01*
X332001Y426356D01*
X331972Y426260D01*
X331939Y426166D01*
X331903Y426073D01*
X331863Y425982D01*
X331819Y425892D01*
X331772Y425804D01*
X331722Y425718D01*
X331668Y425634D01*
X331611Y425552D01*
X331551Y425473D01*
X331487Y425395D01*
X331421Y425321D01*
X331352Y425249D01*
X331280Y425180D01*
X331206Y425114D01*
X331128Y425050D01*
X331049Y424990D01*
X330967Y424933D01*
X330883Y424879D01*
X330797Y424829D01*
X330709Y424782D01*
X330619Y424738D01*
X330528Y424698D01*
X330435Y424662D01*
X330341Y424629D01*
X330245Y424600D01*
X330149Y424575D01*
X330052Y424554D01*
X329953Y424536D01*
X329855Y424523D01*
X329755Y424513D01*
X329656Y424507D01*
X329556Y424505D01*
X329415Y424507D01*
X329274Y424512D01*
X329133Y424522D01*
X328992Y424535D01*
X328852Y424551D01*
X328712Y424572D01*
X328573Y424596D01*
X328434Y424624D01*
X328297Y424655D01*
X328160Y424690D01*
X328024Y424728D01*
X327889Y424770D01*
X327756Y424816D01*
X327623Y424865D01*
X327492Y424918D01*
X327363Y424974D01*
X327234Y425033D01*
X327108Y425096D01*
X326983Y425162D01*
X326860Y425231D01*
X326739Y425304D01*
X326620Y425380D01*
X326502Y425459D01*
X326387Y425540D01*
X326275Y425625D01*
X326164Y425713D01*
X326056Y425804D01*
X325950Y425897D01*
X325847Y425994D01*
X325746Y426093D01*
X326064Y433395D02*
X326066Y433495D01*
X326072Y433594D01*
X326082Y433694D01*
X326095Y433792D01*
X326113Y433891D01*
X326134Y433988D01*
X326159Y434084D01*
X326188Y434180D01*
X326221Y434274D01*
X326257Y434367D01*
X326297Y434458D01*
X326341Y434548D01*
X326388Y434636D01*
X326438Y434722D01*
X326492Y434806D01*
X326549Y434888D01*
X326609Y434967D01*
X326673Y435045D01*
X326739Y435119D01*
X326808Y435191D01*
X326880Y435260D01*
X326954Y435326D01*
X327032Y435390D01*
X327111Y435450D01*
X327193Y435507D01*
X327277Y435561D01*
X327363Y435611D01*
X327451Y435658D01*
X327541Y435702D01*
X327632Y435742D01*
X327725Y435778D01*
X327819Y435811D01*
X327915Y435840D01*
X328011Y435865D01*
X328108Y435886D01*
X328207Y435904D01*
X328305Y435917D01*
X328405Y435927D01*
X328504Y435933D01*
X328604Y435935D01*
X328604Y435936D02*
X328737Y435934D01*
X328870Y435929D01*
X329003Y435919D01*
X329136Y435906D01*
X329268Y435889D01*
X329400Y435869D01*
X329531Y435845D01*
X329661Y435817D01*
X329791Y435786D01*
X329919Y435751D01*
X330047Y435712D01*
X330173Y435670D01*
X330298Y435624D01*
X330422Y435575D01*
X330545Y435523D01*
X330666Y435467D01*
X330785Y435407D01*
X330903Y435345D01*
X331018Y435279D01*
X331132Y435210D01*
X331244Y435137D01*
X331354Y435062D01*
X331462Y434983D01*
X327333Y431172D02*
X327249Y431224D01*
X327166Y431279D01*
X327086Y431338D01*
X327008Y431399D01*
X326933Y431463D01*
X326860Y431531D01*
X326789Y431601D01*
X326722Y431673D01*
X326657Y431748D01*
X326595Y431826D01*
X326536Y431906D01*
X326480Y431988D01*
X326428Y432072D01*
X326379Y432158D01*
X326333Y432246D01*
X326290Y432336D01*
X326251Y432427D01*
X326216Y432520D01*
X326184Y432614D01*
X326156Y432709D01*
X326131Y432805D01*
X326111Y432902D01*
X326093Y433000D01*
X326080Y433098D01*
X326071Y433197D01*
X326065Y433296D01*
X326063Y433395D01*
X330826Y429268D02*
X330910Y429216D01*
X330993Y429161D01*
X331073Y429102D01*
X331151Y429041D01*
X331226Y428977D01*
X331299Y428909D01*
X331370Y428839D01*
X331437Y428767D01*
X331502Y428692D01*
X331564Y428614D01*
X331623Y428534D01*
X331679Y428452D01*
X331731Y428368D01*
X331780Y428282D01*
X331826Y428194D01*
X331869Y428104D01*
X331908Y428013D01*
X331943Y427920D01*
X331975Y427826D01*
X332003Y427731D01*
X332028Y427635D01*
X332048Y427538D01*
X332066Y427440D01*
X332079Y427342D01*
X332088Y427243D01*
X332094Y427144D01*
X332096Y427045D01*
X330826Y429268D02*
X327334Y431173D01*
X336795Y433395D02*
X339970Y435935D01*
X339970Y424505D01*
X336795Y424505D02*
X343145Y424505D01*
D13*
X412300Y428200D02*
X412302Y428263D01*
X412308Y428325D01*
X412318Y428387D01*
X412331Y428449D01*
X412349Y428509D01*
X412370Y428568D01*
X412395Y428626D01*
X412424Y428682D01*
X412456Y428736D01*
X412491Y428788D01*
X412529Y428837D01*
X412571Y428885D01*
X412615Y428929D01*
X412663Y428971D01*
X412712Y429009D01*
X412764Y429044D01*
X412818Y429076D01*
X412874Y429105D01*
X412932Y429130D01*
X412991Y429151D01*
X413051Y429169D01*
X413113Y429182D01*
X413175Y429192D01*
X413237Y429198D01*
X413300Y429200D01*
X413363Y429198D01*
X413425Y429192D01*
X413487Y429182D01*
X413549Y429169D01*
X413609Y429151D01*
X413668Y429130D01*
X413726Y429105D01*
X413782Y429076D01*
X413836Y429044D01*
X413888Y429009D01*
X413937Y428971D01*
X413985Y428929D01*
X414029Y428885D01*
X414071Y428837D01*
X414109Y428788D01*
X414144Y428736D01*
X414176Y428682D01*
X414205Y428626D01*
X414230Y428568D01*
X414251Y428509D01*
X414269Y428449D01*
X414282Y428387D01*
X414292Y428325D01*
X414298Y428263D01*
X414300Y428200D01*
X414298Y428137D01*
X414292Y428075D01*
X414282Y428013D01*
X414269Y427951D01*
X414251Y427891D01*
X414230Y427832D01*
X414205Y427774D01*
X414176Y427718D01*
X414144Y427664D01*
X414109Y427612D01*
X414071Y427563D01*
X414029Y427515D01*
X413985Y427471D01*
X413937Y427429D01*
X413888Y427391D01*
X413836Y427356D01*
X413782Y427324D01*
X413726Y427295D01*
X413668Y427270D01*
X413609Y427249D01*
X413549Y427231D01*
X413487Y427218D01*
X413425Y427208D01*
X413363Y427202D01*
X413300Y427200D01*
X413237Y427202D01*
X413175Y427208D01*
X413113Y427218D01*
X413051Y427231D01*
X412991Y427249D01*
X412932Y427270D01*
X412874Y427295D01*
X412818Y427324D01*
X412764Y427356D01*
X412712Y427391D01*
X412663Y427429D01*
X412615Y427471D01*
X412571Y427515D01*
X412529Y427563D01*
X412491Y427612D01*
X412456Y427664D01*
X412424Y427718D01*
X412395Y427774D01*
X412370Y427832D01*
X412349Y427891D01*
X412331Y427951D01*
X412318Y428013D01*
X412308Y428075D01*
X412302Y428137D01*
X412300Y428200D01*
D12*
X426400Y466100D02*
X604200Y466100D01*
X604200Y34300D01*
X426400Y34300D01*
X426400Y466100D01*
D10*
X428578Y479962D02*
X428578Y496218D01*
X433093Y496218D02*
X424062Y496218D01*
X439383Y488993D02*
X443899Y488993D01*
X443899Y488994D02*
X444032Y488992D01*
X444164Y488986D01*
X444296Y488976D01*
X444428Y488963D01*
X444560Y488945D01*
X444690Y488924D01*
X444821Y488899D01*
X444950Y488870D01*
X445078Y488837D01*
X445206Y488801D01*
X445332Y488761D01*
X445457Y488717D01*
X445581Y488669D01*
X445703Y488618D01*
X445824Y488563D01*
X445943Y488505D01*
X446061Y488443D01*
X446176Y488378D01*
X446290Y488309D01*
X446401Y488238D01*
X446510Y488162D01*
X446617Y488084D01*
X446722Y488003D01*
X446824Y487918D01*
X446924Y487831D01*
X447021Y487741D01*
X447116Y487648D01*
X447207Y487552D01*
X447296Y487454D01*
X447382Y487353D01*
X447465Y487249D01*
X447545Y487143D01*
X447621Y487035D01*
X447695Y486925D01*
X447765Y486812D01*
X447832Y486698D01*
X447895Y486581D01*
X447955Y486463D01*
X448012Y486343D01*
X448065Y486221D01*
X448114Y486098D01*
X448160Y485974D01*
X448202Y485848D01*
X448240Y485721D01*
X448275Y485593D01*
X448306Y485464D01*
X448333Y485335D01*
X448356Y485204D01*
X448376Y485073D01*
X448391Y484941D01*
X448403Y484809D01*
X448411Y484677D01*
X448415Y484544D01*
X448415Y484412D01*
X448411Y484279D01*
X448403Y484147D01*
X448391Y484015D01*
X448376Y483883D01*
X448356Y483752D01*
X448333Y483621D01*
X448306Y483492D01*
X448275Y483363D01*
X448240Y483235D01*
X448202Y483108D01*
X448160Y482982D01*
X448114Y482858D01*
X448065Y482735D01*
X448012Y482613D01*
X447955Y482493D01*
X447895Y482375D01*
X447832Y482258D01*
X447765Y482144D01*
X447695Y482031D01*
X447621Y481921D01*
X447545Y481813D01*
X447465Y481707D01*
X447382Y481603D01*
X447296Y481502D01*
X447207Y481404D01*
X447116Y481308D01*
X447021Y481215D01*
X446924Y481125D01*
X446824Y481038D01*
X446722Y480953D01*
X446617Y480872D01*
X446510Y480794D01*
X446401Y480718D01*
X446290Y480647D01*
X446176Y480578D01*
X446061Y480513D01*
X445943Y480451D01*
X445824Y480393D01*
X445703Y480338D01*
X445581Y480287D01*
X445457Y480239D01*
X445332Y480195D01*
X445206Y480155D01*
X445078Y480119D01*
X444950Y480086D01*
X444821Y480057D01*
X444690Y480032D01*
X444560Y480011D01*
X444428Y479993D01*
X444296Y479980D01*
X444164Y479970D01*
X444032Y479964D01*
X443899Y479962D01*
X439383Y479962D01*
X439383Y496218D01*
X443899Y496218D01*
X444018Y496216D01*
X444138Y496210D01*
X444257Y496200D01*
X444375Y496186D01*
X444494Y496169D01*
X444611Y496147D01*
X444728Y496122D01*
X444843Y496092D01*
X444958Y496059D01*
X445072Y496022D01*
X445184Y495982D01*
X445295Y495937D01*
X445404Y495889D01*
X445512Y495838D01*
X445618Y495783D01*
X445722Y495724D01*
X445824Y495662D01*
X445924Y495597D01*
X446022Y495528D01*
X446118Y495456D01*
X446211Y495381D01*
X446301Y495304D01*
X446389Y495223D01*
X446474Y495139D01*
X446556Y495052D01*
X446636Y494963D01*
X446712Y494871D01*
X446786Y494777D01*
X446856Y494680D01*
X446923Y494582D01*
X446987Y494481D01*
X447047Y494377D01*
X447104Y494272D01*
X447157Y494165D01*
X447207Y494057D01*
X447253Y493947D01*
X447295Y493835D01*
X447334Y493722D01*
X447369Y493608D01*
X447400Y493493D01*
X447428Y493376D01*
X447451Y493259D01*
X447471Y493142D01*
X447487Y493023D01*
X447499Y492904D01*
X447507Y492785D01*
X447511Y492666D01*
X447511Y492546D01*
X447507Y492427D01*
X447499Y492308D01*
X447487Y492189D01*
X447471Y492070D01*
X447451Y491953D01*
X447428Y491836D01*
X447400Y491719D01*
X447369Y491604D01*
X447334Y491490D01*
X447295Y491377D01*
X447253Y491265D01*
X447207Y491155D01*
X447157Y491047D01*
X447104Y490940D01*
X447047Y490835D01*
X446987Y490731D01*
X446923Y490630D01*
X446856Y490532D01*
X446786Y490435D01*
X446712Y490341D01*
X446636Y490249D01*
X446556Y490160D01*
X446474Y490073D01*
X446389Y489989D01*
X446301Y489908D01*
X446211Y489831D01*
X446118Y489756D01*
X446022Y489684D01*
X445924Y489615D01*
X445824Y489550D01*
X445722Y489488D01*
X445618Y489429D01*
X445512Y489374D01*
X445404Y489323D01*
X445295Y489275D01*
X445184Y489230D01*
X445072Y489190D01*
X444958Y489153D01*
X444843Y489120D01*
X444728Y489090D01*
X444611Y489065D01*
X444494Y489043D01*
X444375Y489026D01*
X444257Y489012D01*
X444138Y489002D01*
X444018Y488996D01*
X443899Y488994D01*
X454282Y492606D02*
X458798Y496218D01*
X458798Y479962D01*
X454282Y479962D02*
X463314Y479962D01*
D14*
X331150Y262900D02*
X331150Y110500D01*
X331150Y262900D02*
X350200Y262900D01*
X394650Y262900D01*
X394650Y110500D01*
X350200Y110500D01*
X331150Y110500D01*
X350200Y110500D02*
X350200Y262900D01*
D15*
X315148Y117104D02*
X324292Y111008D01*
X324292Y117104D02*
X315148Y111008D01*
X317180Y120660D02*
X315148Y123200D01*
X324292Y123200D01*
X324292Y120660D02*
X324292Y125740D01*
D14*
X334700Y320350D02*
X385500Y320350D01*
X334700Y320350D02*
X334700Y339400D01*
X334700Y383850D01*
X385500Y383850D01*
X385500Y339400D01*
X385500Y320350D01*
X385500Y339400D02*
X334700Y339400D01*
D15*
X376356Y313492D02*
X370260Y304348D01*
X376356Y304348D02*
X370260Y313492D01*
X381944Y313492D02*
X379912Y306380D01*
X384992Y306380D01*
X383468Y308412D02*
X383468Y304348D01*
D14*
X635950Y364500D02*
X635950Y212100D01*
X635950Y364500D02*
X655000Y364500D01*
X699450Y364500D01*
X699450Y212100D01*
X655000Y212100D01*
X635950Y212100D01*
X655000Y212100D02*
X655000Y364500D01*
D15*
X619948Y268704D02*
X629092Y262608D01*
X629092Y268704D02*
X619948Y262608D01*
X629092Y272260D02*
X629092Y275308D01*
X629090Y275397D01*
X629084Y275485D01*
X629075Y275573D01*
X629061Y275661D01*
X629044Y275748D01*
X629023Y275834D01*
X628998Y275919D01*
X628969Y276003D01*
X628937Y276086D01*
X628902Y276167D01*
X628862Y276246D01*
X628820Y276324D01*
X628774Y276400D01*
X628725Y276474D01*
X628672Y276545D01*
X628617Y276614D01*
X628558Y276681D01*
X628497Y276745D01*
X628433Y276806D01*
X628366Y276865D01*
X628297Y276920D01*
X628226Y276973D01*
X628152Y277022D01*
X628076Y277068D01*
X627998Y277110D01*
X627919Y277150D01*
X627838Y277185D01*
X627755Y277217D01*
X627671Y277246D01*
X627586Y277271D01*
X627500Y277292D01*
X627413Y277309D01*
X627325Y277323D01*
X627237Y277332D01*
X627149Y277338D01*
X627060Y277340D01*
X626044Y277340D01*
X625955Y277338D01*
X625867Y277332D01*
X625779Y277323D01*
X625691Y277309D01*
X625604Y277292D01*
X625518Y277271D01*
X625433Y277246D01*
X625349Y277217D01*
X625266Y277185D01*
X625185Y277150D01*
X625106Y277110D01*
X625028Y277068D01*
X624952Y277022D01*
X624878Y276973D01*
X624807Y276920D01*
X624738Y276865D01*
X624671Y276806D01*
X624607Y276745D01*
X624546Y276681D01*
X624487Y276614D01*
X624432Y276545D01*
X624379Y276474D01*
X624330Y276400D01*
X624284Y276324D01*
X624242Y276246D01*
X624202Y276167D01*
X624167Y276086D01*
X624135Y276003D01*
X624106Y275919D01*
X624081Y275834D01*
X624060Y275748D01*
X624043Y275661D01*
X624029Y275573D01*
X624020Y275485D01*
X624014Y275397D01*
X624012Y275308D01*
X624012Y272260D01*
X619948Y272260D01*
X619948Y277340D01*
D14*
X550800Y951750D02*
X449200Y951750D01*
X550800Y951750D02*
X550800Y932700D01*
X550800Y888250D01*
X449200Y888250D01*
X449200Y932700D01*
X449200Y951750D01*
X449200Y932700D02*
X550800Y932700D01*
D15*
X555804Y877752D02*
X549708Y868608D01*
X555804Y868608D02*
X549708Y877752D01*
X562154Y877752D02*
X562248Y877750D01*
X562343Y877744D01*
X562437Y877734D01*
X562530Y877721D01*
X562623Y877703D01*
X562715Y877682D01*
X562806Y877657D01*
X562896Y877628D01*
X562985Y877596D01*
X563072Y877559D01*
X563158Y877520D01*
X563242Y877476D01*
X563324Y877430D01*
X563404Y877380D01*
X563482Y877326D01*
X563558Y877270D01*
X563631Y877210D01*
X563702Y877148D01*
X563770Y877082D01*
X563836Y877014D01*
X563898Y876943D01*
X563958Y876870D01*
X564014Y876794D01*
X564068Y876716D01*
X564118Y876636D01*
X564164Y876554D01*
X564208Y876470D01*
X564247Y876384D01*
X564284Y876297D01*
X564316Y876208D01*
X564345Y876118D01*
X564370Y876027D01*
X564391Y875935D01*
X564409Y875842D01*
X564422Y875749D01*
X564432Y875655D01*
X564438Y875560D01*
X564440Y875466D01*
X562154Y877752D02*
X562048Y877750D01*
X561943Y877744D01*
X561838Y877735D01*
X561733Y877722D01*
X561629Y877705D01*
X561526Y877684D01*
X561423Y877660D01*
X561321Y877631D01*
X561221Y877600D01*
X561121Y877564D01*
X561023Y877526D01*
X560927Y877483D01*
X560831Y877437D01*
X560738Y877388D01*
X560647Y877336D01*
X560557Y877280D01*
X560469Y877221D01*
X560384Y877159D01*
X560301Y877094D01*
X560220Y877026D01*
X560142Y876955D01*
X560067Y876881D01*
X559994Y876805D01*
X559924Y876726D01*
X559857Y876645D01*
X559792Y876561D01*
X559731Y876475D01*
X559673Y876387D01*
X559618Y876297D01*
X559567Y876205D01*
X559518Y876111D01*
X559473Y876015D01*
X559432Y875918D01*
X559394Y875820D01*
X559360Y875720D01*
X563678Y873688D02*
X563745Y873755D01*
X563810Y873824D01*
X563872Y873896D01*
X563931Y873969D01*
X563987Y874046D01*
X564041Y874124D01*
X564091Y874204D01*
X564138Y874286D01*
X564182Y874370D01*
X564222Y874456D01*
X564260Y874543D01*
X564294Y874631D01*
X564324Y874721D01*
X564351Y874811D01*
X564375Y874903D01*
X564395Y874996D01*
X564411Y875089D01*
X564424Y875183D01*
X564433Y875277D01*
X564438Y875371D01*
X564440Y875466D01*
X563678Y873688D02*
X559360Y868608D01*
X564440Y868608D01*
M02*
