G04 EAGLE Gerber RS-274X export*
G75*
%MOMM*%
%FSLAX34Y34*%
%LPD*%
%INSoldermask Top*%
%IPPOS*%
%AMOC8*
5,1,8,0,0,1.08239X$1,22.5*%
G01*
%ADD10C,0.553200*%
%ADD11C,1.727200*%
%ADD12R,2.003200X2.003200*%
%ADD13C,2.003200*%
%ADD14C,1.711200*%


D10*
X240000Y950000D03*
X750000Y950000D03*
X750000Y20000D03*
X240000Y20000D03*
D11*
X338192Y450794D02*
X353432Y450794D01*
X353432Y496006D02*
X338192Y496006D01*
X288408Y450794D02*
X273168Y450794D01*
X273168Y496006D02*
X288408Y496006D01*
D12*
X439100Y428000D03*
D13*
X439100Y402600D03*
X439100Y377200D03*
X439100Y351800D03*
X439100Y326400D03*
X439100Y301000D03*
X439100Y275600D03*
X439100Y250200D03*
X439100Y224800D03*
X439100Y199400D03*
X439100Y174000D03*
X439100Y148600D03*
X439100Y123200D03*
X439100Y97800D03*
X439100Y72400D03*
X591500Y72400D03*
X591500Y97800D03*
X591500Y123200D03*
X591500Y148600D03*
X591500Y174000D03*
X591500Y199400D03*
X591500Y224800D03*
X591500Y250200D03*
X591500Y275600D03*
X591500Y301000D03*
X591500Y326400D03*
X591500Y351800D03*
X591500Y377200D03*
X591500Y402600D03*
X591500Y428000D03*
D14*
X370440Y123200D02*
X355360Y123200D01*
X355360Y148600D02*
X370440Y148600D01*
X370440Y174000D02*
X355360Y174000D01*
X355360Y199400D02*
X370440Y199400D01*
X370440Y224800D02*
X355360Y224800D01*
X355360Y250200D02*
X370440Y250200D01*
X372800Y344560D02*
X372800Y359640D01*
X347400Y359640D02*
X347400Y344560D01*
X660160Y224800D02*
X675240Y224800D01*
X675240Y250200D02*
X660160Y250200D01*
X660160Y275600D02*
X675240Y275600D01*
X675240Y301000D02*
X660160Y301000D01*
X660160Y326400D02*
X675240Y326400D01*
X675240Y351800D02*
X660160Y351800D01*
X461900Y912460D02*
X461900Y927540D01*
X487300Y927540D02*
X487300Y912460D01*
X512700Y912460D02*
X512700Y927540D01*
X538100Y927540D02*
X538100Y912460D01*
M02*
